<svg width="163" height="244" viewBox="0 0 163 244" fill="none" xmlns="http://www.w3.org/2000/svg">
<path d="M148 81.5414C148 111.818 107.49 165.772 89.7016 188.008C85.4346 193.331 77.51 193.331 73.2983 188.008C55.5096 165.772 15 111.818 15 81.5414C15 44.7773 44.7587 15 81.5 15C118.241 15 148 44.7773 148 81.5414Z" fill="#D1A4E2"/>
<g filter="url(#filter0_f_428_46)">
<path d="M148 81.5414C148 111.818 107.49 165.772 89.7016 188.008C85.4346 193.331 77.51 193.331 73.2983 188.008C55.5096 165.772 15 111.818 15 81.5414C15 44.7773 44.7587 15 81.5 15C118.241 15 148 44.7773 148 81.5414Z" fill="#D1A4E2" fill-opacity="0.25"/>
</g>
<g filter="url(#filter1_f_428_46)">
<ellipse cx="82" cy="206.5" rx="27" ry="7.5" fill="#D1A4E2" fill-opacity="0.35"/>
</g>
<path fill-rule="evenodd" clip-rule="evenodd" d="M103.167 56.3333C103.995 56.3333 104.667 57.0049 104.667 57.8333V100.167C104.667 100.995 103.995 101.667 103.167 101.667H60.8333C60.0049 101.667 59.3333 100.995 59.3333 100.167V57.8333C59.3333 57.0049 60.0049 56.3333 60.8333 56.3333H103.167ZM78.7807 68.636C78.5601 68.0526 78.0014 67.6667 77.3777 67.6667H75.0436C74.4158 67.6667 73.8545 68.0576 73.6367 68.6464L66.364 88.3131C66.0018 89.2926 66.7265 90.3333 67.7709 90.3333H68.543C69.1769 90.3333 69.7424 89.9348 69.9556 89.3378L70.827 86.8977C71.0402 86.3007 71.6057 85.9022 72.2396 85.9022H80.1517C80.7893 85.9022 81.3573 86.3053 81.5677 86.9073L82.4137 89.3282C82.6241 89.9302 83.1921 90.3333 83.8297 90.3333H84.8168C85.8659 90.3333 86.591 89.2839 86.2198 88.3026L78.7807 68.636ZM94.0583 69.1667C94.0583 68.3382 93.3867 67.6667 92.5583 67.6667H91.5913C90.7629 67.6667 90.0913 68.3382 90.0913 69.1667V88.8333C90.0913 89.6618 90.7629 90.3333 91.5913 90.3333H92.5583C93.3867 90.3333 94.0583 89.6618 94.0583 88.8333V69.1667ZM74.7658 75.5614C75.2287 74.2153 77.1307 74.2106 77.6003 75.5543L79.4274 80.7829C79.7682 81.758 79.0444 82.7777 78.0114 82.7777H74.3863C73.3565 82.7777 72.633 81.7638 72.9679 80.7899L74.7658 75.5614ZM108.445 91.8333C108.445 91.0049 109.116 90.3333 109.945 90.3333H114.5C115.328 90.3333 116 91.0049 116 91.8333V96.3889C116 97.2174 115.328 97.8889 114.5 97.8889H109.944C109.116 97.8889 108.444 97.2173 108.444 96.3889L108.445 91.8333ZM63.1113 106.944C63.1114 106.116 63.7829 105.444 64.6113 105.444H69.1667C69.9951 105.444 70.6667 106.116 70.6667 106.944V111.5C70.6667 112.328 69.9951 113 69.1667 113H64.6111C63.7827 113 63.1111 112.328 63.1111 111.5L63.1113 106.944ZM78.2225 106.944C78.2225 106.116 78.894 105.444 79.7225 105.444H84.2779C85.1063 105.444 85.7779 106.116 85.7779 106.944V111.5C85.7779 112.328 85.1063 113 84.2779 113H79.7225C78.894 113 78.2225 112.328 78.2225 111.5V106.944ZM63.1111 46.5C63.1111 45.6716 63.7826 45 64.6111 45H69.1667C69.9951 45 70.6667 45.6716 70.6667 46.5V51.0556C70.6667 51.884 69.9951 52.5556 69.1667 52.5556H64.611C63.7826 52.5556 63.1111 51.884 63.1111 51.0556V46.5ZM93.3333 106.944C93.3333 106.116 94.0049 105.444 94.8333 105.444H99.3889C100.217 105.444 100.889 106.116 100.889 106.944V111.5C100.889 112.328 100.217 113 99.3889 113H94.8333C94.0049 113 93.3333 112.328 93.3333 111.5V106.944ZM78.2223 46.5C78.2223 45.6716 78.8939 45 79.7223 45H84.2777C85.1061 45 85.7777 45.6716 85.7777 46.5V51.0556C85.7777 51.884 85.1061 52.5556 84.2777 52.5556H79.7223C78.8939 52.5556 78.2223 51.884 78.2223 51.0556V46.5ZM93.3333 46.5C93.3333 45.6716 94.0049 45 94.8333 45H99.3889C100.217 45 100.889 45.6716 100.889 46.5V51.0556C100.889 51.884 100.217 52.5556 99.3889 52.5556H94.8333C94.0049 52.5556 93.3333 51.884 93.3333 51.0556V46.5ZM108.444 76.7223C108.444 75.8939 109.116 75.2223 109.944 75.2223H114.5C115.328 75.2223 116 75.8939 116 76.7223V81.2777C116 82.1061 115.328 82.7777 114.5 82.7777H109.944C109.116 82.7777 108.444 82.1061 108.444 81.2777V76.7223ZM48 91.8333C48 91.0049 48.6716 90.3333 49.5 90.3333H54.0556C54.884 90.3333 55.5556 91.0049 55.5556 91.8333V96.3889C55.5556 97.2174 54.884 97.8889 54.0556 97.8889H49.5C48.6716 97.8889 48 97.2174 48 96.3889V91.8333ZM108.444 61.611C108.444 60.7826 109.116 60.1111 109.944 60.1111H114.5C115.328 60.1111 116 60.7826 116 61.6111V66.1667C116 66.9951 115.328 67.6667 114.5 67.6667H109.944C109.116 67.6667 108.444 66.9951 108.444 66.1667V61.611ZM48 76.7223C48 75.8939 48.6716 75.2223 49.5 75.2223H54.0556C54.884 75.2223 55.5556 75.8939 55.5556 76.7223V81.2777C55.5556 82.1061 54.884 82.7777 54.0556 82.7777H49.5C48.6716 82.7777 48 82.1061 48 81.2777V76.7223ZM48 61.611C48 60.7826 48.6716 60.1111 49.5 60.1111H54.0556C54.884 60.1111 55.5556 60.7826 55.5556 61.6111V66.1667C55.5556 66.9951 54.884 67.6667 54.0556 67.6667H49.5C48.6716 67.6667 48 66.9951 48 66.1667V61.611Z" fill="white"/>
<defs>
<filter id="filter0_f_428_46" x="0" y="0" width="163" height="207" filterUnits="userSpaceOnUse" color-interpolation-filters="sRGB">
<feFlood flood-opacity="0" result="BackgroundImageFix"/>
<feBlend mode="normal" in="SourceGraphic" in2="BackgroundImageFix" result="shape"/>
<feGaussianBlur stdDeviation="7.5" result="effect1_foregroundBlur_428_46"/>
</filter>
<filter id="filter1_f_428_46" x="25" y="169" width="114" height="75" filterUnits="userSpaceOnUse" color-interpolation-filters="sRGB">
<feFlood flood-opacity="0" result="BackgroundImageFix"/>
<feBlend mode="normal" in="SourceGraphic" in2="BackgroundImageFix" result="shape"/>
<feGaussianBlur stdDeviation="15" result="effect1_foregroundBlur_428_46"/>
</filter>
</defs>
</svg>
