<svg width="518" height="518" viewBox="0 0 518 518" fill="none" xmlns="http://www.w3.org/2000/svg">
<path d="M518 29.7018C518 13.298 504.702 0 488.298 0H288.702C272.298 0 259 13.298 259 29.7018V191.269C259 228.21 229.403 258.34 192.468 259H29.7018C13.298 259 0 272.298 0 288.702V488.298C0 504.702 13.298 518 29.7018 518H229.298C245.702 518 259 504.702 259 488.298V326.731C259 289.79 288.597 259.66 325.532 259H488.298C504.702 259 518 245.702 518 229.298V29.7018Z" fill="white"/>
<path fill-rule="evenodd" clip-rule="evenodd" d="M192 403.861C182.707 423.185 162.945 436.524 140.068 436.524C133.207 436.524 126.625 435.324 120.522 433.122C122.273 430.981 123.154 427.958 122.722 424.448C124.329 427.495 127.792 429.604 131.476 429.604C132.897 429.604 134.245 429.295 135.458 428.741C137.42 427.845 140.446 428.193 142.151 429.515C143.774 430.774 145.812 431.523 148.024 431.523C153.322 431.523 157.617 427.228 157.617 421.93C157.617 418.72 156.041 415.878 153.62 414.136C152.013 412.98 151.008 410.62 151.286 408.66C151.349 408.216 151.382 407.762 151.382 407.3C151.382 402.002 146.738 397.713 141.44 397.713C146.57 397.522 150.662 393.29 150.662 388.114C150.662 387.4 150.584 386.704 150.437 386.035C149.982 383.975 150.91 381.224 152.523 379.864C154.612 378.105 155.939 375.47 155.939 372.525C155.939 367.227 151.644 362.932 146.345 362.932C143.811 362.932 141.507 363.914 139.792 365.519C138.261 366.952 135.454 367.535 133.477 366.836C132.476 366.482 131.399 366.289 130.277 366.289C125.977 366.289 121.783 369.226 120.564 373.124C122.1 365.896 117.713 361.44 112.932 360.52C110.855 360.121 108.672 358.166 108.042 356.148C106.803 352.183 103.022 349.501 98.8594 349.501C93.5613 349.501 89.2663 353.796 89.2663 359.094C89.2663 360.309 89.4919 361.471 89.9036 362.54C90.6287 364.424 90.1566 367.039 88.8144 368.546C87.3052 370.241 86.3883 372.475 86.3883 374.923C86.3883 377.972 87.7818 380.992 89.9891 382.852C88.4346 382.032 86.5244 381.638 84.7095 381.638C83.9672 381.638 83.2445 381.723 82.5506 381.882C82.5012 380.905 82.4763 379.921 82.4763 378.932C82.4763 356.055 95.8147 336.293 115.139 327C87.4942 333.842 67 358.814 67 388.573C67 400.803 70.4615 412.224 76.4582 421.911C74.6054 417.837 73.8106 412.636 74.4879 407.12C75.3653 399.975 78.5116 393.94 82.6266 390.51C85.7896 394.833 87.3825 401.45 86.5051 408.596C86.3493 409.864 86.122 411.098 85.8305 412.288C86.6726 411.461 87.5797 410.664 88.5486 409.907C94.2216 405.474 100.714 403.432 106.049 403.916C105.228 409.21 101.676 415.015 96.0026 419.447C95.2136 420.064 94.4087 420.634 93.5933 421.158C94.5777 421.186 95.5776 421.26 96.5881 421.384C103.734 422.262 109.769 425.408 113.199 429.523C108.875 432.686 102.258 434.279 95.1126 433.402C88.5638 432.597 82.9478 429.887 79.4151 426.273C90.9694 441.881 109.517 452 130.427 452C160.186 452 185.158 431.506 192 403.861ZM110.535 394.433C109.502 395.111 108.744 396.175 108.469 397.421L96.6806 399.021L108.54 399.794C108.891 401.026 109.721 402.056 110.814 402.671L108.691 414.393L113.117 403.287L113.135 403.288C113.148 403.288 113.162 403.288 113.175 403.288C114.429 403.288 115.571 402.809 116.428 402.024L127.021 407.721L117.743 400.01C117.907 399.526 117.996 399.007 117.996 398.467C117.996 397.796 117.859 397.157 117.611 396.577L126.341 388.226L116.14 394.666C115.323 394.027 114.293 393.647 113.175 393.647C113.049 393.647 112.924 393.652 112.8 393.661L107.589 382.849L110.535 394.433Z" fill="url(#paint0_radial_443_5)"/>
<path d="M78.5702 425.033L78.5393 425.06L78.5602 425.09L78.5656 425.059L78.5702 425.033Z" fill="url(#paint1_radial_443_5)"/>
<defs>
<radialGradient id="paint0_radial_443_5" cx="0" cy="0" r="1" gradientUnits="userSpaceOnUse" gradientTransform="translate(108.482 325.145) rotate(75.2446) scale(125.015 125.015)">
<stop stop-color="#AC6CC0"/>
<stop offset="1" stop-color="#3B114B"/>
</radialGradient>
<radialGradient id="paint1_radial_443_5" cx="0" cy="0" r="1" gradientUnits="userSpaceOnUse" gradientTransform="translate(108.482 325.145) rotate(75.2446) scale(125.015 125.015)">
<stop stop-color="#AC6CC0"/>
<stop offset="1" stop-color="#3B114B"/>
</radialGradient>
</defs>
</svg>
