<svg width="136" height="188" viewBox="0 0 136 188" fill="none" xmlns="http://www.w3.org/2000/svg">
<path fill-rule="evenodd" clip-rule="evenodd" d="M0 36C0 33.8783 0.842856 31.8434 2.34315 30.3431C3.84344 28.8429 5.87827 28 8 28H104C106.122 28 108.157 28.8429 109.657 30.3431C111.157 31.8434 112 33.8783 112 36V180C112 182.122 111.157 184.157 109.657 185.657C108.157 187.157 106.122 188 104 188H8C5.87827 188 3.84344 187.157 2.34315 185.657C0.842856 184.157 0 182.122 0 180V36ZM9.6 37.6V178.4H102.4V37.6H9.6ZM56 172C53.8783 172 51.8434 171.157 50.3431 169.657C48.8429 168.157 48 166.122 48 164C48 161.878 48.8429 159.843 50.3431 158.343C51.8434 156.843 53.8783 156 56 156C58.1217 156 60.1566 156.843 61.6569 158.343C63.1571 159.843 64 161.878 64 164C64 166.122 63.1571 168.157 61.6569 169.657C60.1566 171.157 58.1217 172 56 172Z" fill="#3B114B"/>
<path d="M129.014 55.2609L129.006 55.2804C129.002 55.2913 128.996 55.3049 128.989 55.3211C128.887 55.5741 128.53 56.4555 127.641 57.1263C126.79 57.7686 125.804 57.9743 125.035 58.0765C123.635 58.2625 121.347 58.2712 117.548 58.1594L117.363 58.347C117.509 62.2754 117.519 64.6253 117.342 66.054C117.247 66.8284 117.05 67.8331 116.403 68.6987C115.717 69.616 114.805 69.9698 114.55 70.0687C114.537 70.0738 114.526 70.0782 114.516 70.082C114.514 70.0829 114.512 70.0837 114.51 70.0845L108.333 72.6257C108.322 72.6301 108.309 72.6357 108.293 72.6424C108.043 72.7491 107.147 73.1318 106.015 72.9509C104.964 72.783 104.129 72.2122 103.524 71.7351C102.4 70.8492 100.753 69.1836 98.0793 66.2996L97.8883 66.2971C95.3396 69.0972 93.7449 70.7325 92.6363 71.6051C92.0268 72.0848 91.1741 72.6601 90.0911 72.8075C88.9678 72.9604 88.0762 72.5647 87.8342 72.4573C87.8183 72.4502 87.8053 72.4445 87.7951 72.4401L87.7731 72.4308L87.7513 72.421L81.0303 69.4313L79.9575 68.9541L79.4937 67.8754L79.2332 67.2697L79.0702 66.8907L79.0155 66.4817C78.633 63.6172 78.4997 60.7249 78.6168 57.8383L78.3987 57.6078C74.6498 57.6919 72.3832 57.6639 70.9922 57.4629C70.2231 57.3518 69.2342 57.1317 68.3881 56.4665C67.5122 55.7778 67.1723 54.8856 67.0766 54.6343C67.0705 54.6184 67.0654 54.605 67.0612 54.5944L129.014 55.2609ZM129.014 55.2609L129.022 55.2413L131.591 48.8755L131.634 48.7681L131.669 48.6576L131.86 48.0541L132.182 47.0375L131.79 46.046L131.582 45.5203C131.342 44.912 130.971 44.3309 130.058 43.2829C129.245 42.3494 127.873 40.9021 125.504 38.5794V38.1204C128.26 35.3983 129.852 33.718 130.695 32.5705C131.156 31.9438 131.68 31.1095 131.823 30.082C131.974 28.9967 131.621 28.1375 131.517 27.886C131.511 27.8699 131.505 27.8562 131.501 27.8452L131.5 27.844L128.943 21.4119L128.942 21.4109C128.938 21.4003 128.933 21.3869 128.927 21.3708C128.831 21.1214 128.492 20.2344 127.617 19.548C126.776 18.8878 125.793 18.6651 125.021 18.5519C123.624 18.3471 121.354 18.3159 117.597 18.4037L117.386 18.1812C117.503 15.2893 117.366 12.3917 116.977 9.52267L116.921 9.11275L116.757 8.73318L116.496 8.13203L116.031 7.05919L114.963 6.58388L108.315 3.62563C108.308 3.62239 108.3 3.6187 108.292 3.61459C108.056 3.50023 107.159 3.06527 106.017 3.19039C104.899 3.31291 104.02 3.89581 103.402 4.37617C102.28 5.24844 100.674 6.89222 98.1185 9.70097L97.9284 9.69806C95.2614 6.8193 93.6209 5.15308 92.5031 4.26798C91.9008 3.79105 91.0624 3.21417 90.002 3.04752C88.8708 2.86974 87.9717 3.25453 87.7229 3.36098C87.707 3.3678 87.6938 3.37347 87.6833 3.37778L87.6828 3.37796L81.4743 5.93325C81.4742 5.93328 81.4742 5.9333 81.4741 5.93333C81.474 5.93336 81.4739 5.9334 81.4738 5.93343C81.4632 5.9378 81.4498 5.9431 81.4339 5.94941C81.1794 6.05018 80.2766 6.40766 79.5973 7.32234C78.9574 8.18396 78.7599 9.18239 78.6633 9.95735C78.4851 11.3864 78.4905 13.7362 78.6305 17.6667L78.4556 17.8441C74.6596 17.7326 72.3738 17.7424 70.9745 17.929C70.2058 18.0316 69.2205 18.2379 68.3699 18.8809C67.4802 19.5534 67.1249 20.4366 67.0235 20.6889C67.017 20.7051 67.0115 20.7186 67.007 20.7294L67.0004 20.7451L66.994 20.761L64.4206 27.1291L64.3845 27.2185L64.3542 27.31L64.1521 27.9203L63.8086 28.9576L64.2127 29.9729L64.4238 30.5032L64.4268 30.5106C64.6635 31.1008 65.0214 31.6705 65.9394 32.7246C66.7513 33.6568 68.1241 35.1041 70.4987 37.4297V37.8787C67.7428 40.6007 66.1505 42.2818 65.3071 43.4304C64.8461 44.0583 64.3227 44.8943 64.1812 45.9241C64.0322 47.009 64.3871 47.8681 64.4906 48.1186C64.497 48.1341 64.5024 48.1472 64.5067 48.1579C64.5069 48.1584 64.5071 48.1589 64.5073 48.1594L67.0609 54.5938L129.014 55.2609ZM94.8765 45.7979C92.8862 44.9161 91.3029 43.2618 90.4883 41.1794C89.9146 39.644 89.797 37.9681 90.1517 36.3628C90.5076 34.7521 91.3214 33.2917 92.4828 32.1616C93.6437 31.0321 95.1 30.2825 96.6664 29.9987C98.2325 29.7149 99.847 29.9077 101.31 30.5557C102.773 31.204 104.024 32.2815 104.899 33.6611C105.775 35.0413 106.234 36.6594 106.213 38.3119C106.192 39.9643 105.691 41.5692 104.78 42.9248C103.873 44.275 102.601 45.3155 101.13 45.9251C99.1101 46.7239 96.8646 46.6788 94.8765 45.7979Z" fill="#3B114B" stroke="#EEEEEE" stroke-width="6"/>
<circle cx="98" cy="38" r="8" fill="#EEEEEE"/>
</svg>
