<svg width="185" height="133" viewBox="0 0 185 133" fill="none" xmlns="http://www.w3.org/2000/svg">
<path d="M36.9295 133V124.201H49.8443L66.3886 68.3786C67.2284 65.2402 68.9169 62.7589 71.454 60.9345C73.9912 59.1101 76.8279 58.2009 79.964 58.2067H105.036C108.178 58.2067 111.015 59.116 113.546 60.9345C116.083 62.7589 117.772 65.2402 118.611 68.3786L135.156 124.201H148.07V133H36.9295ZM88.0952 35.1968V0H96.9048V35.1968H88.0952ZM136.107 55.1094L129.826 48.8356L154.827 24.0746L160.897 30.1373L136.107 55.1094ZM149.762 96.7913V87.9921H185V96.7913H149.762ZM48.8929 55.1006L24.1117 30.1373L30.1726 24.0746L55.1829 48.8356L48.8929 55.1006ZM0 96.7913V87.9921H35.2381V96.7913H0Z" fill="white"/>
</svg>
