<svg width="98" height="36" viewBox="0 0 98 36" fill="none" xmlns="http://www.w3.org/2000/svg">
<path d="M2.192 35C1.552 35 1.056 34.824 0.704 34.472C0.352 34.088 0.176 33.576 0.176 32.936V2.984C0.176 2.312 0.336 1.8 0.656 1.448C1.008 1.096 1.504 0.919998 2.144 0.919998C2.784 0.919998 3.264 1.096 3.584 1.448C3.936 1.8 4.112 2.312 4.112 2.984V31.544H19.856C20.432 31.544 20.88 31.704 21.2 32.024C21.52 32.312 21.68 32.728 21.68 33.272C21.68 33.816 21.52 34.248 21.2 34.568C20.88 34.856 20.432 35 19.856 35H2.192ZM33.4978 35.432C31.6098 35.432 30.0418 35.096 28.7938 34.424C27.5778 33.72 26.6498 32.68 26.0098 31.304C25.4018 29.928 25.0978 28.216 25.0978 26.168V13.304C25.0978 12.632 25.2578 12.136 25.5778 11.816C25.9298 11.496 26.4098 11.336 27.0178 11.336C27.6578 11.336 28.1378 11.496 28.4578 11.816C28.8098 12.136 28.9858 12.632 28.9858 13.304V26.12C28.9858 28.168 29.4018 29.704 30.2338 30.728C31.0978 31.72 32.4418 32.216 34.2657 32.216C36.2498 32.216 37.8658 31.544 39.1138 30.2C40.3618 28.856 40.9858 27.096 40.9858 24.92V13.304C40.9858 12.632 41.1458 12.136 41.4658 11.816C41.8178 11.496 42.3138 11.336 42.9538 11.336C43.5618 11.336 44.0258 11.496 44.3458 11.816C44.6978 12.136 44.8738 12.632 44.8738 13.304V33.32C44.8738 34.664 44.2498 35.336 43.0018 35.336C42.3938 35.336 41.9138 35.16 41.5618 34.808C41.2418 34.456 41.0818 33.96 41.0818 33.32V28.952L41.7058 29.624C41.0658 31.512 40.0098 32.952 38.5378 33.944C37.0978 34.936 35.4178 35.432 33.4978 35.432ZM54.068 35.336C53.428 35.336 52.948 35.16 52.628 34.808C52.308 34.456 52.148 33.96 52.148 33.32V13.304C52.148 12.664 52.308 12.184 52.628 11.864C52.948 11.512 53.412 11.336 54.02 11.336C54.628 11.336 55.092 11.512 55.412 11.864C55.764 12.184 55.94 12.664 55.94 13.304V17.432L55.412 16.856C56.084 15 57.172 13.608 58.676 12.68C60.212 11.72 61.972 11.24 63.956 11.24C65.812 11.24 67.348 11.576 68.564 12.248C69.812 12.92 70.74 13.944 71.348 15.32C71.956 16.664 72.26 18.376 72.26 20.456V33.32C72.26 33.96 72.084 34.456 71.732 34.808C71.412 35.16 70.948 35.336 70.34 35.336C69.7 35.336 69.204 35.16 68.852 34.808C68.532 34.456 68.372 33.96 68.372 33.32V20.696C68.372 18.52 67.94 16.936 67.076 15.944C66.244 14.92 64.9 14.408 63.044 14.408C60.9 14.408 59.188 15.08 57.908 16.424C56.66 17.736 56.036 19.496 56.036 21.704V33.32C56.036 34.664 55.38 35.336 54.068 35.336ZM86.7733 35.432C85.1733 35.432 83.7333 35.128 82.4533 34.52C81.2053 33.88 80.2133 33.016 79.4773 31.928C78.7413 30.84 78.3733 29.624 78.3733 28.28C78.3733 26.552 78.8053 25.192 79.6693 24.2C80.5653 23.208 82.0213 22.504 84.0373 22.088C86.0853 21.672 88.8693 21.464 92.3893 21.464H94.5493V24.008H92.4373C89.8453 24.008 87.7973 24.136 86.2933 24.392C84.8213 24.616 83.7813 25.016 83.1733 25.592C82.5973 26.168 82.3093 26.984 82.3093 28.04C82.3093 29.352 82.7573 30.424 83.6533 31.256C84.5813 32.088 85.8293 32.504 87.3973 32.504C88.6773 32.504 89.7973 32.2 90.7573 31.592C91.7493 30.984 92.5173 30.152 93.0613 29.096C93.6373 28.04 93.9253 26.824 93.9253 25.448V19.976C93.9253 17.992 93.5253 16.568 92.7253 15.704C91.9253 14.808 90.6133 14.36 88.7893 14.36C87.6693 14.36 86.5493 14.504 85.4293 14.792C84.3093 15.08 83.1253 15.544 81.8773 16.184C81.4293 16.408 81.0453 16.488 80.7253 16.424C80.4053 16.328 80.1493 16.152 79.9573 15.896C79.7653 15.64 79.6533 15.352 79.6213 15.032C79.5893 14.68 79.6533 14.344 79.8133 14.024C80.0053 13.704 80.2933 13.448 80.6773 13.256C82.0853 12.552 83.4773 12.04 84.8533 11.72C86.2293 11.4 87.5413 11.24 88.7893 11.24C90.8053 11.24 92.4693 11.576 93.7813 12.248C95.0933 12.888 96.0693 13.88 96.7093 15.224C97.3493 16.536 97.6693 18.232 97.6693 20.312V33.32C97.6693 33.96 97.5093 34.456 97.1893 34.808C96.9013 35.16 96.4693 35.336 95.8933 35.336C95.2853 35.336 94.8213 35.16 94.5013 34.808C94.1813 34.456 94.0213 33.96 94.0213 33.32V29.576H94.4533C94.1973 30.792 93.7013 31.832 92.9653 32.696C92.2613 33.56 91.3813 34.232 90.3253 34.712C89.2693 35.192 88.0853 35.432 86.7733 35.432Z" fill="#3B114B"/>
</svg>
