<svg width="100" height="100" viewBox="0 0 100 100" fill="none" xmlns="http://www.w3.org/2000/svg">
<path fill-rule="evenodd" clip-rule="evenodd" d="M75.6 99.9999L61.8555 26.7222L0 32.3444V82.2222C0 88.4444 -3.57628e-07 91.5555 1.21111 93.9333C2.27635 96.0239 3.97607 97.7236 6.06667 98.7888C8.44444 99.9999 11.5556 99.9999 17.7778 99.9999H75.6ZM52.7778 66.8333C52.7778 78.8222 40.8889 87.2444 35.7056 90.3499C34.989 90.7799 34.169 91.007 33.3333 91.007C32.4977 91.007 31.6777 90.7799 30.9611 90.3499C25.7778 87.2444 13.8889 78.8222 13.8889 66.8277C13.8889 55.0666 23.3111 47.2222 33.3333 47.2222C43.7056 47.2222 52.7778 55.0666 52.7778 66.8333Z" fill="black"/>
<path d="M33.3333 72.2221C36.4016 72.2221 38.8889 69.7348 38.8889 66.6665C38.8889 63.5983 36.4016 61.111 33.3333 61.111C30.2651 61.111 27.7778 63.5983 27.7778 66.6665C27.7778 69.7348 30.2651 72.2221 33.3333 72.2221Z" fill="black"/>
<path d="M72.9722 25.7112L100 23.2556V82.2223C100 88.4445 100 91.5556 98.7889 93.9334C97.7236 96.024 96.0239 97.7237 93.9333 98.7889C92.2444 99.6501 90.1833 99.9001 86.8944 99.9723L72.9722 25.7112Z" fill="#C899D9"/>
<path d="M0 17.7778C0 11.5556 0 8.44444 1.21111 6.06667C2.27635 3.97607 3.97607 2.27635 6.06667 1.21111C8.44444 0 11.5556 0 17.7778 0H82.2222C88.4444 0 91.5555 0 93.9333 1.21111C96.0239 2.27635 97.7236 3.97607 98.7889 6.06667C99.5555 7.57778 99.8389 9.38889 99.9444 12.1L0 21.1889V17.7778Z" fill="#743D89"/>
</svg>
