<svg width="100" height="100" viewBox="0 0 100 100" fill="none" xmlns="http://www.w3.org/2000/svg">
<path d="M64 26H10C7.34784 26 4.8043 27.0536 2.92893 28.9289C1.05357 30.8043 0 33.3478 0 36V90C0 92.6522 1.05357 95.1957 2.92893 97.0711C4.8043 98.9464 7.34784 100 10 100H64C66.6522 100 69.1957 98.9464 71.0711 97.0711C72.9464 95.1957 74 92.6522 74 90V36C74 33.3478 72.9464 30.8043 71.0711 28.9289C69.1957 27.0536 66.6522 26 64 26ZM62 88H12V38H62V88Z" fill="black"/>
<path d="M53.7574 1.75736C52.6321 2.88258 52 4.4087 52 6C52 7.5913 52.6321 9.11742 53.7574 10.2426C54.8826 11.3679 56.4087 12 58 12H66C67.5913 12 69.1174 11.3679 70.2426 10.2426C71.3679 9.11742 72 7.5913 72 6C72 4.4087 71.3679 2.88258 70.2426 1.75736C69.1174 0.632141 67.5913 0 66 0H58C56.4087 0 54.8826 0.632141 53.7574 1.75736Z" fill="#C899D9"/>
<path d="M100 14V10C100 7.34784 98.9464 4.8043 97.0711 2.92893C95.1957 1.05357 92.6522 0 90 0H86C84.4087 0 82.8826 0.632141 81.7574 1.75736C80.6321 2.88258 80 4.4087 80 6C80 7.5913 80.6321 9.11742 81.7574 10.2426C82.8826 11.3679 84.4087 12 86 12H88V14C88 15.5913 88.6321 17.1174 89.7574 18.2426C90.8826 19.3679 92.4087 20 94 20C95.5913 20 97.1174 19.3679 98.2426 18.2426C99.3679 17.1174 100 15.5913 100 14Z" fill="#C899D9"/>
<path d="M100 42V34C100 32.4087 99.3679 30.8826 98.2426 29.7574C97.1174 28.6321 95.5913 28 94 28C92.4087 28 90.8826 28.6321 89.7574 29.7574C88.6321 30.8826 88 32.4087 88 34V42C88 43.5913 88.6321 45.1174 89.7574 46.2426C90.8826 47.3679 92.4087 48 94 48C95.5913 48 97.1174 47.3679 98.2426 46.2426C99.3679 45.1174 100 43.5913 100 42Z" fill="#C899D9"/>
<path d="M100 66V62C100 60.4087 99.3679 58.8826 98.2426 57.7574C97.1174 56.6321 95.5913 56 94 56C92.4087 56 90.8826 56.6321 89.7574 57.7574C88.6321 58.8826 88 60.4087 88 62V64H86C84.4087 64 82.8826 64.6321 81.7574 65.7574C80.6321 66.8826 80 68.4087 80 70C80 71.5913 80.6321 73.1174 81.7574 74.2426C82.8826 75.3679 84.4087 76 86 76H90C92.6522 76 95.1957 74.9464 97.0711 73.0711C98.9464 71.1957 100 68.6522 100 66Z" fill="#C899D9"/>
<path d="M24 10V14C24 15.5913 24.6321 17.1174 25.7574 18.2426C26.8826 19.3679 28.4087 20 30 20C31.5913 20 33.1174 19.3679 34.2426 18.2426C35.3679 17.1174 36 15.5913 36 14V12H38C39.5913 12 41.1174 11.3679 42.2426 10.2426C43.3679 9.11742 44 7.5913 44 6C44 4.4087 43.3679 2.88258 42.2426 1.75736C41.1174 0.632141 39.5913 0 38 0H34C31.3478 0 28.8043 1.05357 26.9289 2.92893C25.0536 4.8043 24 7.34784 24 10Z" fill="#C899D9"/>
</svg>
