<svg width="100" height="91" viewBox="0 0 100 91" fill="none" xmlns="http://www.w3.org/2000/svg">
<path d="M63.6362 90.2439H18.184V81.2227H63.6362V90.2439Z" fill="black"/>
<path d="M95.4528 9.02124L72.9312 37.0998L47.3416 69.5312C46.497 70.3693 45.4943 71.0342 44.3908 71.4878C43.2873 71.9414 42.1045 72.1749 40.9101 72.1749C39.7157 72.1749 38.5329 71.9414 37.4294 71.4878C36.3259 71.0342 35.3232 70.3693 34.4786 69.5312C33.634 68.693 32.964 67.698 32.5069 66.6028C32.0498 65.5077 31.8146 64.334 31.8146 63.1486C31.8146 61.9633 32.0498 60.7896 32.5069 59.6944C32.964 58.5993 33.634 57.6043 34.4786 56.7661L95.4528 9.02124Z" fill="black"/>
<path d="M79.9853 42.7923L81.0444 41.4977L93.7574 25.6294C99.388 35.6684 101.291 47.3498 99.1344 58.6381H77.2718V54.1275C77.2645 51.7355 77.0654 49.3478 76.6764 46.9872L79.9853 42.7923Z" fill="#C899D9"/>
<path d="M29.8193 4.23723C36.1748 1.44295 43.0493 -0.000400333 50.0006 0C60.7269 0.000943422 71.1654 3.44391 79.7582 9.8151L63.6226 22.4538C57.4388 16.7716 49.3376 13.5893 40.9101 13.5319C32.5283 13.5918 24.4684 16.743 18.2976 22.3727L13.0979 16.2247C17.7678 11.1149 23.4637 7.03151 29.8193 4.23723Z" fill="#743D89"/>
<path d="M0.866692 58.6381C-1.44815 46.5518 0.913296 34.0436 7.48 23.6086L12.2298 29.2289C7.18228 36.5624 4.50312 45.2466 4.54833 54.1275V58.6381H0.866692Z" fill="black"/>
</svg>
