<svg width="359" height="65" viewBox="0 0 359 65" fill="none" xmlns="http://www.w3.org/2000/svg">
<path d="M59.992 3.392L47.064 48H40.536L30.168 12.096L19.416 48L12.952 48.064L0.472 3.392H6.68L16.408 41.216L27.16 3.392H33.688L43.928 41.088L53.72 3.392H59.992ZM83.7735 12.288C86.4188 12.288 88.8082 12.864 90.9415 14.016C93.0748 15.1253 94.7388 16.8107 95.9335 19.072C97.1708 21.3333 97.7895 24.0853 97.7895 27.328V48H92.0295V28.16C92.0295 24.6613 91.1548 21.9947 89.4055 20.16C87.6562 18.2827 85.2668 17.344 82.2375 17.344C79.1655 17.344 76.7122 18.304 74.8775 20.224C73.0855 22.144 72.1895 24.9387 72.1895 28.608V48H66.3655V0.639999H72.1895V17.92C73.3415 16.128 74.9202 14.7413 76.9255 13.76C78.9735 12.7787 81.2562 12.288 83.7735 12.288ZM137.511 12.928L116.391 64.512H110.375L117.287 47.616L103.143 12.928H109.607L120.615 41.344L131.495 12.928H137.511Z" fill="#3B114B"/>
<path d="M170.412 39.552H184.748V48H159.468V3.072H170.412V39.552ZM200.72 3.072V29.952C200.72 32.64 201.381 34.7093 202.704 36.16C204.027 37.6107 205.968 38.336 208.528 38.336C211.088 38.336 213.051 37.6107 214.416 36.16C215.781 34.7093 216.464 32.64 216.464 29.952V3.072H227.408V29.888C227.408 33.8987 226.555 37.2907 224.848 40.064C223.141 42.8373 220.837 44.928 217.936 46.336C215.077 47.744 211.877 48.448 208.336 48.448C204.795 48.448 201.616 47.7653 198.8 46.4C196.027 44.992 193.829 42.9013 192.208 40.128C190.587 37.312 189.776 33.8987 189.776 29.888V3.072H200.72ZM275.285 48H264.341L246.037 20.288V48H235.093V3.072H246.037L264.341 30.912V3.072H275.285V48ZM311.186 40.064H294.418L291.73 48H280.274L296.53 3.072H309.202L325.458 48H313.874L311.186 40.064ZM308.37 31.616L302.802 15.168L297.298 31.616H308.37ZM343.526 0.575996C348.091 0.575996 351.739 1.77066 354.47 4.16C357.243 6.54933 358.63 9.92 358.63 14.272C358.63 18.2827 357.307 21.4187 354.662 23.68C352.059 25.8987 348.603 27.0293 344.294 27.072L343.974 31.872H334.374L334.054 19.968H337.894C341.179 19.968 343.675 19.5627 345.382 18.752C347.131 17.9413 348.006 16.4693 348.006 14.336C348.006 12.8427 347.6 11.6693 346.79 10.816C345.979 9.96267 344.848 9.536 343.398 9.536C341.862 9.536 340.667 9.984 339.814 10.88C338.96 11.7333 338.534 12.9067 338.534 14.4H328.23C328.144 11.7973 328.678 9.45066 329.83 7.36C331.024 5.26933 332.774 3.62667 335.078 2.432C337.424 1.19466 340.24 0.575996 343.526 0.575996ZM339.302 48.512C337.382 48.512 335.803 47.9573 334.566 46.848C333.371 45.696 332.774 44.288 332.774 42.624C332.774 40.9173 333.371 39.488 334.566 38.336C335.803 37.184 337.382 36.608 339.302 36.608C341.179 36.608 342.715 37.184 343.91 38.336C345.147 39.488 345.766 40.9173 345.766 42.624C345.766 44.288 345.147 45.696 343.91 46.848C342.715 47.9573 341.179 48.512 339.302 48.512Z" fill="#EEEEEE"/>
</svg>
