<svg width="517" height="65" viewBox="0 0 517 65" fill="none" xmlns="http://www.w3.org/2000/svg">
<path d="M30.752 16.448C30.752 20.16 29.472 23.2533 26.912 25.728C24.3947 28.16 20.5333 29.376 15.328 29.376H6.752V48H0.928V3.392H15.328C20.3627 3.392 24.1813 4.608 26.784 7.04C29.4293 9.472 30.752 12.608 30.752 16.448ZM15.328 24.576C18.5707 24.576 20.96 23.872 22.496 22.464C24.032 21.056 24.8 19.0507 24.8 16.448C24.8 10.944 21.6427 8.192 15.328 8.192H6.752V24.576H15.328ZM53.2865 48.576C50.0012 48.576 47.0145 47.8293 44.3265 46.336C41.6812 44.8427 39.5905 42.7307 38.0545 40C36.5612 37.2267 35.8145 34.0267 35.8145 30.4C35.8145 26.816 36.5825 23.6587 38.1185 20.928C39.6972 18.1547 41.8305 16.0427 44.5185 14.592C47.2065 13.0987 50.2145 12.352 53.5425 12.352C56.8705 12.352 59.8785 13.0987 62.5665 14.592C65.2545 16.0427 67.3665 18.1333 68.9025 20.864C70.4812 23.5947 71.2705 26.7733 71.2705 30.4C71.2705 34.0267 70.4598 37.2267 68.8385 40C67.2598 42.7307 65.1052 44.8427 62.3745 46.336C59.6438 47.8293 56.6145 48.576 53.2865 48.576ZM53.2865 43.456C55.3772 43.456 57.3398 42.9653 59.1745 41.984C61.0092 41.0027 62.4812 39.5307 63.5905 37.568C64.7425 35.6053 65.3185 33.216 65.3185 30.4C65.3185 27.584 64.7638 25.1947 63.6545 23.232C62.5452 21.2693 61.0945 19.8187 59.3025 18.88C57.5105 17.8987 55.5692 17.408 53.4785 17.408C51.3452 17.408 49.3825 17.8987 47.5905 18.88C45.8412 19.8187 44.4332 21.2693 43.3665 23.232C42.2998 25.1947 41.7665 27.584 41.7665 30.4C41.7665 33.2587 42.2785 35.6693 43.3025 37.632C44.3692 39.5947 45.7772 41.0667 47.5265 42.048C49.2758 42.9867 51.1958 43.456 53.2865 43.456ZM84.752 18.624C85.776 16.6187 87.2267 15.0613 89.104 13.952C91.024 12.8427 93.3493 12.288 96.08 12.288V18.304H94.544C88.016 18.304 84.752 21.8453 84.752 28.928V48H78.928V12.928H84.752V18.624ZM117.69 30.336C117.69 26.752 118.415 23.616 119.866 20.928C121.316 18.1973 123.3 16.0853 125.818 14.592C128.378 13.0987 131.236 12.352 134.394 12.352C137.423 12.352 140.068 13.0347 142.33 14.4C144.634 15.7227 146.319 17.3653 147.386 19.328V12.928H153.274V64.64H147.386V41.536C146.276 43.4987 144.57 45.1627 142.266 46.528C139.962 47.8933 137.274 48.576 134.202 48.576C131.13 48.576 128.335 47.808 125.818 46.272C123.3 44.736 121.316 42.5813 119.866 39.808C118.415 37.0347 117.69 33.8773 117.69 30.336ZM147.386 30.4C147.386 27.7547 146.852 25.4507 145.786 23.488C144.719 21.5253 143.268 20.032 141.434 19.008C139.642 17.9413 137.658 17.408 135.482 17.408C133.306 17.408 131.322 17.92 129.53 18.944C127.738 19.968 126.308 21.4613 125.242 23.424C124.175 25.3867 123.642 27.6907 123.642 30.336C123.642 33.024 124.175 35.3707 125.242 37.376C126.308 39.3387 127.738 40.8533 129.53 41.92C131.322 42.944 133.306 43.456 135.482 43.456C137.658 43.456 139.642 42.944 141.434 41.92C143.268 40.8533 144.719 39.3387 145.786 37.376C146.852 35.3707 147.386 33.0453 147.386 30.4ZM194.22 12.928V48H188.396V42.816C187.286 44.608 185.729 46.016 183.724 47.04C181.761 48.0213 179.585 48.512 177.196 48.512C174.465 48.512 172.012 47.9573 169.836 46.848C167.66 45.696 165.932 43.9893 164.652 41.728C163.414 39.4667 162.796 36.7147 162.796 33.472V12.928H168.556V32.704C168.556 36.16 169.43 38.8267 171.18 40.704C172.929 42.5387 175.318 43.456 178.348 43.456C181.462 43.456 183.916 42.496 185.708 40.576C187.5 38.656 188.396 35.8613 188.396 32.192V12.928H194.22ZM236.053 29.12C236.053 30.2293 235.989 31.4027 235.861 32.64H207.829C208.042 36.096 209.216 38.8053 211.349 40.768C213.525 42.688 216.149 43.648 219.221 43.648C221.738 43.648 223.829 43.072 225.493 41.92C227.2 40.7253 228.394 39.1467 229.077 37.184H235.349C234.41 40.5547 232.533 43.3067 229.717 45.44C226.901 47.5307 223.402 48.576 219.221 48.576C215.893 48.576 212.906 47.8293 210.261 46.336C207.658 44.8427 205.61 42.7307 204.117 40C202.624 37.2267 201.877 34.0267 201.877 30.4C201.877 26.7733 202.602 23.5947 204.053 20.864C205.504 18.1333 207.53 16.0427 210.133 14.592C212.778 13.0987 215.808 12.352 219.221 12.352C222.549 12.352 225.493 13.0773 228.053 14.528C230.613 15.9787 232.576 17.984 233.941 20.544C235.349 23.0613 236.053 25.92 236.053 29.12ZM230.037 27.904C230.037 25.6853 229.546 23.7867 228.565 22.208C227.584 20.5867 226.24 19.3707 224.533 18.56C222.869 17.7067 221.013 17.28 218.965 17.28C216.021 17.28 213.504 18.2187 211.413 20.096C209.365 21.9733 208.192 24.576 207.893 27.904H230.037ZM276.099 48.576C272.814 48.576 269.827 47.8293 267.139 46.336C264.494 44.8427 262.403 42.7307 260.867 40C259.374 37.2267 258.627 34.0267 258.627 30.4C258.627 26.816 259.395 23.6587 260.931 20.928C262.51 18.1547 264.643 16.0427 267.331 14.592C270.019 13.0987 273.027 12.352 276.355 12.352C279.683 12.352 282.691 13.0987 285.379 14.592C288.067 16.0427 290.179 18.1333 291.715 20.864C293.294 23.5947 294.083 26.7733 294.083 30.4C294.083 34.0267 293.272 37.2267 291.651 40C290.072 42.7307 287.918 44.8427 285.187 46.336C282.456 47.8293 279.427 48.576 276.099 48.576ZM276.099 43.456C278.19 43.456 280.152 42.9653 281.987 41.984C283.822 41.0027 285.294 39.5307 286.403 37.568C287.555 35.6053 288.131 33.216 288.131 30.4C288.131 27.584 287.576 25.1947 286.467 23.232C285.358 21.2693 283.907 19.8187 282.115 18.88C280.323 17.8987 278.382 17.408 276.291 17.408C274.158 17.408 272.195 17.8987 270.403 18.88C268.654 19.8187 267.246 21.2693 266.179 23.232C265.112 25.1947 264.579 27.584 264.579 30.4C264.579 33.2587 265.091 35.6693 266.115 37.632C267.182 39.5947 268.59 41.0667 270.339 42.048C272.088 42.9867 274.008 43.456 276.099 43.456Z" fill="#3B114B"/>
<path d="M328.787 39.552H343.123V48H317.843V3.072H328.787V39.552ZM359.095 3.072V29.952C359.095 32.64 359.756 34.7093 361.079 36.16C362.402 37.6107 364.343 38.336 366.903 38.336C369.463 38.336 371.426 37.6107 372.791 36.16C374.156 34.7093 374.839 32.64 374.839 29.952V3.072H385.783V29.888C385.783 33.8987 384.93 37.2907 383.223 40.064C381.516 42.8373 379.212 44.928 376.311 46.336C373.452 47.744 370.252 48.448 366.711 48.448C363.17 48.448 359.991 47.7653 357.175 46.4C354.402 44.992 352.204 42.9013 350.583 40.128C348.962 37.312 348.151 33.8987 348.151 29.888V3.072H359.095ZM433.66 48H422.716L404.412 20.288V48H393.468V3.072H404.412L422.716 30.912V3.072H433.66V48ZM469.561 40.064H452.793L450.105 48H438.649L454.905 3.072H467.577L483.833 48H472.249L469.561 40.064ZM466.745 31.616L461.177 15.168L455.673 31.616H466.745ZM501.901 0.575996C506.466 0.575996 510.114 1.77066 512.845 4.16C515.618 6.54933 517.005 9.92 517.005 14.272C517.005 18.2827 515.682 21.4187 513.037 23.68C510.434 25.8987 506.978 27.0293 502.669 27.072L502.349 31.872H492.749L492.429 19.968H496.269C499.554 19.968 502.05 19.5627 503.757 18.752C505.506 17.9413 506.381 16.4693 506.381 14.336C506.381 12.8427 505.975 11.6693 505.165 10.816C504.354 9.96267 503.223 9.536 501.773 9.536C500.237 9.536 499.042 9.984 498.189 10.88C497.335 11.7333 496.909 12.9067 496.909 14.4H486.605C486.519 11.7973 487.053 9.45066 488.205 7.36C489.399 5.26933 491.149 3.62667 493.453 2.432C495.799 1.19466 498.615 0.575996 501.901 0.575996ZM497.677 48.512C495.757 48.512 494.178 47.9573 492.941 46.848C491.746 45.696 491.149 44.288 491.149 42.624C491.149 40.9173 491.746 39.488 492.941 38.336C494.178 37.184 495.757 36.608 497.677 36.608C499.554 36.608 501.09 37.184 502.285 38.336C503.522 39.488 504.141 40.9173 504.141 42.624C504.141 44.288 503.522 45.696 502.285 46.848C501.09 47.9573 499.554 48.512 497.677 48.512Z" fill="#EEEEEE"/>
</svg>
