<svg width="530" height="342" viewBox="0 0 530 342" fill="none" xmlns="http://www.w3.org/2000/svg">
<path d="M15.72 31.28C13.1333 31.28 10.7733 30.68 8.64 29.48C6.50667 28.2533 4.81333 26.56 3.56 24.4C2.33333 22.2133 1.72 19.76 1.72 17.04C1.72 14.32 2.33333 11.88 3.56 9.72C4.81333 7.53333 6.50667 5.84 8.64 4.64C10.7733 3.41333 13.1333 2.8 15.72 2.8C18.3333 2.8 20.7067 3.41333 22.84 4.64C24.9733 5.84 26.6533 7.52 27.88 9.68C29.1067 11.84 29.72 14.2933 29.72 17.04C29.72 19.7867 29.1067 22.24 27.88 24.4C26.6533 26.56 24.9733 28.2533 22.84 29.48C20.7067 30.68 18.3333 31.28 15.72 31.28ZM15.72 28.12C17.6667 28.12 19.4133 27.6667 20.96 26.76C22.5333 25.8533 23.76 24.56 24.64 22.88C25.5467 21.2 26 19.2533 26 17.04C26 14.8 25.5467 12.8533 24.64 11.2C23.76 9.52 22.5467 8.22667 21 7.32C19.4533 6.41333 17.6933 5.96 15.72 5.96C13.7467 5.96 11.9867 6.41333 10.44 7.32C8.89333 8.22667 7.66667 9.52 6.76 11.2C5.88 12.8533 5.44 14.8 5.44 17.04C5.44 19.2533 5.88 21.2 6.76 22.88C7.66667 24.56 8.89333 25.8533 10.44 26.76C12.0133 27.6667 13.7733 28.12 15.72 28.12ZM53.9653 9.08V31H50.3253V27.76C49.632 28.88 48.6586 29.76 47.4053 30.4C46.1786 31.0133 44.8186 31.32 43.3253 31.32C41.6186 31.32 40.0853 30.9733 38.7253 30.28C37.3653 29.56 36.2853 28.4933 35.4853 27.08C34.712 25.6667 34.3253 23.9467 34.3253 21.92V9.08H37.9253V21.44C37.9253 23.6 38.472 25.2667 39.5653 26.44C40.6586 27.5867 42.152 28.16 44.0453 28.16C45.992 28.16 47.5253 27.56 48.6453 26.36C49.7653 25.16 50.3253 23.4133 50.3253 21.12V9.08H53.9653ZM63.7513 12.64C64.3913 11.3867 65.2979 10.4133 66.4713 9.72C67.6713 9.02667 69.1246 8.68 70.8313 8.68V12.44H69.8713C65.7913 12.44 63.7513 14.6533 63.7513 19.08V31H60.1113V9.08H63.7513V12.64ZM84.3372 19.96C84.3372 17.72 84.7905 15.76 85.6972 14.08C86.6039 12.3733 87.8439 11.0533 89.4172 10.12C91.0172 9.18667 92.7905 8.72 94.7372 8.72C96.6572 8.72 98.3239 9.13333 99.7372 9.96C101.151 10.7867 102.204 11.8267 102.897 13.08V9.08H106.577V31H102.897V26.92C102.177 28.2 101.097 29.2667 99.6572 30.12C98.2439 30.9467 96.5905 31.36 94.6972 31.36C92.7505 31.36 90.9905 30.88 89.4172 29.92C87.8439 28.96 86.6039 27.6133 85.6972 25.88C84.7905 24.1467 84.3372 22.1733 84.3372 19.96ZM102.897 20C102.897 18.3467 102.564 16.9067 101.897 15.68C101.231 14.4533 100.324 13.52 99.1772 12.88C98.0572 12.2133 96.8172 11.88 95.4572 11.88C94.0972 11.88 92.8572 12.2 91.7372 12.84C90.6172 13.48 89.7239 14.4133 89.0572 15.64C88.3905 16.8667 88.0572 18.3067 88.0572 19.96C88.0572 21.64 88.3905 23.1067 89.0572 24.36C89.7239 25.5867 90.6172 26.5333 91.7372 27.2C92.8572 27.84 94.0972 28.16 95.4572 28.16C96.8172 28.16 98.0572 27.84 99.1772 27.2C100.324 26.5333 101.231 25.5867 101.897 24.36C102.564 23.1067 102.897 21.6533 102.897 20ZM116.368 13.12C117.088 11.8667 118.155 10.8267 119.568 10C121.008 9.14667 122.675 8.72 124.568 8.72C126.515 8.72 128.275 9.18667 129.848 10.12C131.448 11.0533 132.702 12.3733 133.608 14.08C134.515 15.76 134.968 17.72 134.968 19.96C134.968 22.1733 134.515 24.1467 133.608 25.88C132.702 27.6133 131.448 28.96 129.848 29.92C128.275 30.88 126.515 31.36 124.568 31.36C122.702 31.36 121.048 30.9467 119.608 30.12C118.195 29.2667 117.115 28.2133 116.368 26.96V41.4H112.728V9.08H116.368V13.12ZM131.248 19.96C131.248 18.3067 130.915 16.8667 130.248 15.64C129.582 14.4133 128.675 13.48 127.528 12.84C126.408 12.2 125.168 11.88 123.808 11.88C122.475 11.88 121.235 12.2133 120.088 12.88C118.968 13.52 118.062 14.4667 117.368 15.72C116.702 16.9467 116.368 18.3733 116.368 20C116.368 21.6533 116.702 23.1067 117.368 24.36C118.062 25.5867 118.968 26.5333 120.088 27.2C121.235 27.84 122.475 28.16 123.808 28.16C125.168 28.16 126.408 27.84 127.528 27.2C128.675 26.5333 129.582 25.5867 130.248 24.36C130.915 23.1067 131.248 21.64 131.248 19.96ZM143.4 13.12C144.12 11.8667 145.186 10.8267 146.6 10C148.04 9.14667 149.706 8.72 151.6 8.72C153.546 8.72 155.306 9.18667 156.88 10.12C158.48 11.0533 159.733 12.3733 160.64 14.08C161.546 15.76 162 17.72 162 19.96C162 22.1733 161.546 24.1467 160.64 25.88C159.733 27.6133 158.48 28.96 156.88 29.92C155.306 30.88 153.546 31.36 151.6 31.36C149.733 31.36 148.08 30.9467 146.64 30.12C145.226 29.2667 144.146 28.2133 143.4 26.96V41.4H139.76V9.08H143.4V13.12ZM158.28 19.96C158.28 18.3067 157.946 16.8667 157.28 15.64C156.613 14.4133 155.706 13.48 154.56 12.84C153.44 12.2 152.2 11.88 150.84 11.88C149.506 11.88 148.266 12.2133 147.12 12.88C146 13.52 145.093 14.4667 144.4 15.72C143.733 16.9467 143.4 18.3733 143.4 20C143.4 21.6533 143.733 23.1067 144.4 24.36C145.093 25.5867 146 26.5333 147.12 27.2C148.266 27.84 149.506 28.16 150.84 28.16C152.2 28.16 153.44 27.84 154.56 27.2C155.706 26.5333 156.613 25.5867 157.28 24.36C157.946 23.1067 158.28 21.64 158.28 19.96ZM179.335 5.52C178.642 5.52 178.055 5.28 177.575 4.8C177.095 4.32 176.855 3.73333 176.855 3.04C176.855 2.34667 177.095 1.76 177.575 1.28C178.055 0.799999 178.642 0.559999 179.335 0.559999C180.002 0.559999 180.562 0.799999 181.015 1.28C181.495 1.76 181.735 2.34667 181.735 3.04C181.735 3.73333 181.495 4.32 181.015 4.8C180.562 5.28 180.002 5.52 179.335 5.52ZM181.095 9.08V31H177.455V9.08H181.095ZM195.059 31.36C193.379 31.36 191.872 31.08 190.539 30.52C189.205 29.9333 188.152 29.1333 187.379 28.12C186.605 27.08 186.179 25.8933 186.099 24.56H189.859C189.965 25.6533 190.472 26.5467 191.379 27.24C192.312 27.9333 193.525 28.28 195.019 28.28C196.405 28.28 197.499 27.9733 198.299 27.36C199.099 26.7467 199.499 25.9733 199.499 25.04C199.499 24.08 199.072 23.3733 198.219 22.92C197.365 22.44 196.045 21.9733 194.259 21.52C192.632 21.0933 191.299 20.6667 190.259 20.24C189.245 19.7867 188.365 19.1333 187.619 18.28C186.899 17.4 186.539 16.2533 186.539 14.84C186.539 13.72 186.872 12.6933 187.539 11.76C188.205 10.8267 189.152 10.0933 190.379 9.56C191.605 9 193.005 8.72 194.579 8.72C197.005 8.72 198.965 9.33333 200.459 10.56C201.952 11.7867 202.752 13.4667 202.859 15.6H199.219C199.139 14.4533 198.672 13.5333 197.819 12.84C196.992 12.1467 195.872 11.8 194.459 11.8C193.152 11.8 192.112 12.08 191.339 12.64C190.565 13.2 190.179 13.9333 190.179 14.84C190.179 15.56 190.405 16.16 190.859 16.64C191.339 17.0933 191.925 17.4667 192.619 17.76C193.339 18.0267 194.325 18.3333 195.579 18.68C197.152 19.1067 198.432 19.5333 199.419 19.96C200.405 20.36 201.245 20.9733 201.939 21.8C202.659 22.6267 203.032 23.7067 203.059 25.04C203.059 26.24 202.725 27.32 202.059 28.28C201.392 29.24 200.445 30 199.219 30.56C198.019 31.0933 196.632 31.36 195.059 31.36ZM217.501 19.96C217.501 17.72 217.955 15.76 218.861 14.08C219.768 12.3733 221.008 11.0533 222.581 10.12C224.181 9.18667 225.968 8.72 227.941 8.72C229.648 8.72 231.235 9.12 232.701 9.92C234.168 10.6933 235.288 11.72 236.061 13V1.4H239.741V31H236.061V26.88C235.341 28.1867 234.275 29.2667 232.861 30.12C231.448 30.9467 229.795 31.36 227.901 31.36C225.955 31.36 224.181 30.88 222.581 29.92C221.008 28.96 219.768 27.6133 218.861 25.88C217.955 24.1467 217.501 22.1733 217.501 19.96ZM236.061 20C236.061 18.3467 235.728 16.9067 235.061 15.68C234.395 14.4533 233.488 13.52 232.341 12.88C231.221 12.2133 229.981 11.88 228.621 11.88C227.261 11.88 226.021 12.2 224.901 12.84C223.781 13.48 222.888 14.4133 222.221 15.64C221.555 16.8667 221.221 18.3067 221.221 19.96C221.221 21.64 221.555 23.1067 222.221 24.36C222.888 25.5867 223.781 26.5333 224.901 27.2C226.021 27.84 227.261 28.16 228.621 28.16C229.981 28.16 231.221 27.84 232.341 27.2C233.488 26.5333 234.395 25.5867 235.061 24.36C235.728 23.1067 236.061 21.6533 236.061 20ZM265.893 19.2C265.893 19.8933 265.853 20.6267 265.773 21.4H248.253C248.386 23.56 249.119 25.2533 250.453 26.48C251.813 27.68 253.453 28.28 255.373 28.28C256.946 28.28 258.253 27.92 259.293 27.2C260.359 26.4533 261.106 25.4667 261.533 24.24H265.453C264.866 26.3467 263.693 28.0667 261.933 29.4C260.173 30.7067 257.986 31.36 255.373 31.36C253.293 31.36 251.426 30.8933 249.773 29.96C248.146 29.0267 246.866 27.7067 245.933 26C244.999 24.2667 244.533 22.2667 244.533 20C244.533 17.7333 244.986 15.7467 245.893 14.04C246.799 12.3333 248.066 11.0267 249.693 10.12C251.346 9.18667 253.239 8.72 255.373 8.72C257.453 8.72 259.293 9.17333 260.893 10.08C262.493 10.9867 263.719 12.24 264.573 13.84C265.453 15.4133 265.893 17.2 265.893 19.2ZM262.133 18.44C262.133 17.0533 261.826 15.8667 261.213 14.88C260.599 13.8667 259.759 13.1067 258.693 12.6C257.653 12.0667 256.493 11.8 255.213 11.8C253.373 11.8 251.799 12.3867 250.493 13.56C249.213 14.7333 248.479 16.36 248.293 18.44H262.133ZM278.457 31.36C276.777 31.36 275.271 31.08 273.937 30.52C272.604 29.9333 271.551 29.1333 270.777 28.12C270.004 27.08 269.577 25.8933 269.497 24.56H273.257C273.364 25.6533 273.871 26.5467 274.777 27.24C275.711 27.9333 276.924 28.28 278.417 28.28C279.804 28.28 280.897 27.9733 281.697 27.36C282.497 26.7467 282.897 25.9733 282.897 25.04C282.897 24.08 282.471 23.3733 281.617 22.92C280.764 22.44 279.444 21.9733 277.657 21.52C276.031 21.0933 274.697 20.6667 273.657 20.24C272.644 19.7867 271.764 19.1333 271.017 18.28C270.297 17.4 269.937 16.2533 269.937 14.84C269.937 13.72 270.271 12.6933 270.937 11.76C271.604 10.8267 272.551 10.0933 273.777 9.56C275.004 9 276.404 8.72 277.977 8.72C280.404 8.72 282.364 9.33333 283.857 10.56C285.351 11.7867 286.151 13.4667 286.257 15.6H282.617C282.537 14.4533 282.071 13.5333 281.217 12.84C280.391 12.1467 279.271 11.8 277.857 11.8C276.551 11.8 275.511 12.08 274.737 12.64C273.964 13.2 273.577 13.9333 273.577 14.84C273.577 15.56 273.804 16.16 274.257 16.64C274.737 17.0933 275.324 17.4667 276.017 17.76C276.737 18.0267 277.724 18.3333 278.977 18.68C280.551 19.1067 281.831 19.5333 282.817 19.96C283.804 20.36 284.644 20.9733 285.337 21.8C286.057 22.6267 286.431 23.7067 286.457 25.04C286.457 26.24 286.124 27.32 285.457 28.28C284.791 29.24 283.844 30 282.617 30.56C281.417 31.0933 280.031 31.36 278.457 31.36ZM293.476 5.52C292.782 5.52 292.196 5.28 291.716 4.8C291.236 4.32 290.996 3.73333 290.996 3.04C290.996 2.34667 291.236 1.76 291.716 1.28C292.196 0.799999 292.782 0.559999 293.476 0.559999C294.142 0.559999 294.702 0.799999 295.156 1.28C295.636 1.76 295.876 2.34667 295.876 3.04C295.876 3.73333 295.636 4.32 295.156 4.8C294.702 5.28 294.142 5.52 293.476 5.52ZM295.236 9.08V31H291.596V9.08H295.236ZM310.479 8.72C312.373 8.72 314.026 9.13333 315.439 9.96C316.879 10.7867 317.946 11.8267 318.639 13.08V9.08H322.319V31.48C322.319 33.48 321.893 35.2533 321.039 36.8C320.186 38.3733 318.959 39.6 317.359 40.48C315.786 41.36 313.946 41.8 311.839 41.8C308.959 41.8 306.559 41.12 304.639 39.76C302.719 38.4 301.586 36.5467 301.239 34.2H304.839C305.239 35.5333 306.066 36.6 307.319 37.4C308.573 38.2267 310.079 38.64 311.839 38.64C313.839 38.64 315.466 38.0133 316.719 36.76C317.999 35.5067 318.639 33.7467 318.639 31.48V26.88C317.919 28.16 316.853 29.2267 315.439 30.08C314.026 30.9333 312.373 31.36 310.479 31.36C308.533 31.36 306.759 30.88 305.159 29.92C303.586 28.96 302.346 27.6133 301.439 25.88C300.533 24.1467 300.079 22.1733 300.079 19.96C300.079 17.72 300.533 15.76 301.439 14.08C302.346 12.3733 303.586 11.0533 305.159 10.12C306.759 9.18667 308.533 8.72 310.479 8.72ZM318.639 20C318.639 18.3467 318.306 16.9067 317.639 15.68C316.973 14.4533 316.066 13.52 314.919 12.88C313.799 12.2133 312.559 11.88 311.199 11.88C309.839 11.88 308.599 12.2 307.479 12.84C306.359 13.48 305.466 14.4133 304.799 15.64C304.133 16.8667 303.799 18.3067 303.799 19.96C303.799 21.64 304.133 23.1067 304.799 24.36C305.466 25.5867 306.359 26.5333 307.479 27.2C308.599 27.84 309.839 28.16 311.199 28.16C312.559 28.16 313.799 27.84 314.919 27.2C316.066 26.5333 316.973 25.5867 317.639 24.36C318.306 23.1067 318.639 21.6533 318.639 20ZM339.151 8.68C341.817 8.68 343.977 9.49333 345.631 11.12C347.284 12.72 348.111 15.04 348.111 18.08V31H344.511V18.6C344.511 16.4133 343.964 14.7467 342.871 13.6C341.777 12.4267 340.284 11.84 338.391 11.84C336.471 11.84 334.937 12.44 333.791 13.64C332.671 14.84 332.111 16.5867 332.111 18.88V31H328.471V9.08H332.111V12.2C332.831 11.08 333.804 10.2133 335.031 9.6C336.284 8.98667 337.657 8.68 339.151 8.68ZM374.057 19.2C374.057 19.8933 374.017 20.6267 373.937 21.4H356.417C356.55 23.56 357.283 25.2533 358.617 26.48C359.977 27.68 361.617 28.28 363.537 28.28C365.11 28.28 366.417 27.92 367.457 27.2C368.523 26.4533 369.27 25.4667 369.697 24.24H373.617C373.03 26.3467 371.857 28.0667 370.097 29.4C368.337 30.7067 366.15 31.36 363.537 31.36C361.457 31.36 359.59 30.8933 357.937 29.96C356.31 29.0267 355.03 27.7067 354.097 26C353.163 24.2667 352.697 22.2667 352.697 20C352.697 17.7333 353.15 15.7467 354.057 14.04C354.963 12.3333 356.23 11.0267 357.857 10.12C359.51 9.18667 361.403 8.72 363.537 8.72C365.617 8.72 367.457 9.17333 369.057 10.08C370.657 10.9867 371.883 12.24 372.737 13.84C373.617 15.4133 374.057 17.2 374.057 19.2ZM370.297 18.44C370.297 17.0533 369.99 15.8667 369.377 14.88C368.763 13.8667 367.923 13.1067 366.857 12.6C365.817 12.0667 364.657 11.8 363.377 11.8C361.537 11.8 359.963 12.3867 358.657 13.56C357.377 14.7333 356.643 16.36 356.457 18.44H370.297ZM377.501 19.96C377.501 17.72 377.955 15.76 378.861 14.08C379.768 12.3733 381.008 11.0533 382.581 10.12C384.181 9.18667 385.968 8.72 387.941 8.72C389.648 8.72 391.235 9.12 392.701 9.92C394.168 10.6933 395.288 11.72 396.061 13V1.4H399.741V31H396.061V26.88C395.341 28.1867 394.275 29.2667 392.861 30.12C391.448 30.9467 389.795 31.36 387.901 31.36C385.955 31.36 384.181 30.88 382.581 29.92C381.008 28.96 379.768 27.6133 378.861 25.88C377.955 24.1467 377.501 22.1733 377.501 19.96ZM396.061 20C396.061 18.3467 395.728 16.9067 395.061 15.68C394.395 14.4533 393.488 13.52 392.341 12.88C391.221 12.2133 389.981 11.88 388.621 11.88C387.261 11.88 386.021 12.2 384.901 12.84C383.781 13.48 382.888 14.4133 382.221 15.64C381.555 16.8667 381.221 18.3067 381.221 19.96C381.221 21.64 381.555 23.1067 382.221 24.36C382.888 25.5867 383.781 26.5333 384.901 27.2C386.021 27.84 387.261 28.16 388.621 28.16C389.981 28.16 391.221 27.84 392.341 27.2C393.488 26.5333 394.395 25.5867 395.061 24.36C395.728 23.1067 396.061 21.6533 396.061 20ZM425.477 12.08H420.877V31H417.237V12.08H414.397V9.08H417.237V7.52C417.237 5.06667 417.863 3.28 419.117 2.16C420.397 1.01333 422.437 0.439998 425.237 0.439998V3.48C423.637 3.48 422.503 3.8 421.837 4.44C421.197 5.05333 420.877 6.08 420.877 7.52V9.08H425.477V12.08ZM439.281 31.36C437.227 31.36 435.361 30.8933 433.681 29.96C432.027 29.0267 430.721 27.7067 429.761 26C428.827 24.2667 428.361 22.2667 428.361 20C428.361 17.76 428.841 15.7867 429.801 14.08C430.787 12.3467 432.121 11.0267 433.801 10.12C435.481 9.18667 437.361 8.72 439.441 8.72C441.521 8.72 443.401 9.18667 445.081 10.12C446.761 11.0267 448.081 12.3333 449.041 14.04C450.027 15.7467 450.521 17.7333 450.521 20C450.521 22.2667 450.014 24.2667 449.001 26C448.014 27.7067 446.667 29.0267 444.961 29.96C443.254 30.8933 441.361 31.36 439.281 31.36ZM439.281 28.16C440.587 28.16 441.814 27.8533 442.961 27.24C444.107 26.6267 445.027 25.7067 445.721 24.48C446.441 23.2533 446.801 21.76 446.801 20C446.801 18.24 446.454 16.7467 445.761 15.52C445.067 14.2933 444.161 13.3867 443.041 12.8C441.921 12.1867 440.707 11.88 439.401 11.88C438.067 11.88 436.841 12.1867 435.721 12.8C434.627 13.3867 433.747 14.2933 433.081 15.52C432.414 16.7467 432.081 18.24 432.081 20C432.081 21.7867 432.401 23.2933 433.041 24.52C433.707 25.7467 434.587 26.6667 435.681 27.28C436.774 27.8667 437.974 28.16 439.281 28.16ZM458.947 12.64C459.587 11.3867 460.493 10.4133 461.667 9.72C462.867 9.02667 464.32 8.68 466.027 8.68V12.44H465.067C460.987 12.44 458.947 14.6533 458.947 19.08V31H455.307V9.08H458.947V12.64ZM478.773 19.76C478.773 17.44 479.186 15.4133 480.013 13.68C480.866 11.9467 482.013 10.6133 483.453 9.68C484.919 8.74667 486.546 8.28 488.333 8.28C489.879 8.28 491.213 8.58667 492.333 9.2C493.453 9.81333 494.319 10.64 494.933 11.68V8.56H502.773V31H494.933V27.88C494.319 28.92 493.439 29.7467 492.293 30.36C491.173 30.9733 489.853 31.28 488.333 31.28C486.546 31.28 484.919 30.8133 483.453 29.88C482.013 28.9467 480.866 27.6133 480.013 25.88C479.186 24.12 478.773 22.08 478.773 19.76ZM494.933 19.76C494.933 18.32 494.533 17.1867 493.733 16.36C492.959 15.5333 491.999 15.12 490.853 15.12C489.679 15.12 488.706 15.5333 487.933 16.36C487.159 17.16 486.773 18.2933 486.773 19.76C486.773 21.2 487.159 22.3467 487.933 23.2C488.706 24.0267 489.679 24.44 490.853 24.44C491.999 24.44 492.959 24.0267 493.733 23.2C494.533 22.3733 494.933 21.2267 494.933 19.76ZM515.08 1.4V31H507.24V1.4H515.08ZM527.385 1.4V31H519.545V1.4H527.385ZM35.4 68.56L29.68 91H20.88L17.76 77.4L14.52 91H5.76L0.08 68.56H7.88L10.4 83.44L13.72 68.56H22.12L25.56 83.48L28.04 68.56H35.4ZM48.0706 91.28C45.8306 91.28 43.8173 90.8133 42.0306 89.88C40.2706 88.9467 38.884 87.6133 37.8706 85.88C36.8573 84.1467 36.3506 82.1067 36.3506 79.76C36.3506 77.44 36.8573 75.4133 37.8706 73.68C38.9106 71.9467 40.3106 70.6133 42.0706 69.68C43.8573 68.7467 45.8706 68.28 48.1106 68.28C50.3506 68.28 52.3506 68.7467 54.1106 69.68C55.8973 70.6133 57.2973 71.9467 58.3106 73.68C59.3506 75.4133 59.8706 77.44 59.8706 79.76C59.8706 82.08 59.3506 84.12 58.3106 85.88C57.2973 87.6133 55.8973 88.9467 54.1106 89.88C52.324 90.8133 50.3106 91.28 48.0706 91.28ZM48.0706 84.48C49.164 84.48 50.0706 84.08 50.7906 83.28C51.5373 82.4533 51.9106 81.28 51.9106 79.76C51.9106 78.24 51.5373 77.08 50.7906 76.28C50.0706 75.48 49.1773 75.08 48.1106 75.08C47.044 75.08 46.1506 75.48 45.4306 76.28C44.7106 77.08 44.3506 78.24 44.3506 79.76C44.3506 81.3067 44.6973 82.48 45.3906 83.28C46.084 84.08 46.9773 84.48 48.0706 84.48ZM92.3803 68.36C95.207 68.36 97.4203 69.2133 99.0203 70.92C100.647 72.6267 101.46 74.96 101.46 77.92V91H93.6203V78.96C93.6203 77.76 93.287 76.8267 92.6203 76.16C91.9536 75.4933 91.047 75.16 89.9003 75.16C88.7536 75.16 87.847 75.4933 87.1803 76.16C86.5136 76.8267 86.1803 77.76 86.1803 78.96V91H78.3403V78.96C78.3403 77.76 78.007 76.8267 77.3403 76.16C76.7003 75.4933 75.807 75.16 74.6603 75.16C73.487 75.16 72.567 75.4933 71.9003 76.16C71.2336 76.8267 70.9003 77.76 70.9003 78.96V91H63.0603V68.56H70.9003V71.52C71.5936 70.56 72.487 69.8 73.5803 69.24C74.7003 68.6533 75.9803 68.36 77.4203 68.36C79.0736 68.36 80.5403 68.72 81.8203 69.44C83.127 70.16 84.1536 71.1733 84.9003 72.48C85.7003 71.2533 86.7536 70.2667 88.0603 69.52C89.367 68.7467 90.807 68.36 92.3803 68.36ZM127.196 79.52C127.196 80.1333 127.156 80.7467 127.076 81.36H112.236C112.316 82.5867 112.649 83.5067 113.236 84.12C113.849 84.7067 114.622 85 115.556 85C116.862 85 117.796 84.4133 118.356 83.24H126.716C126.369 84.7867 125.689 86.1733 124.676 87.4C123.689 88.6 122.436 89.5467 120.916 90.24C119.396 90.9333 117.716 91.28 115.876 91.28C113.662 91.28 111.689 90.8133 109.956 89.88C108.249 88.9467 106.902 87.6133 105.916 85.88C104.956 84.1467 104.476 82.1067 104.476 79.76C104.476 77.4133 104.956 75.3867 105.916 73.68C106.876 71.9467 108.209 70.6133 109.916 69.68C111.649 68.7467 113.636 68.28 115.876 68.28C118.089 68.28 120.049 68.7333 121.756 69.64C123.462 70.5467 124.796 71.8533 125.756 73.56C126.716 75.24 127.196 77.2267 127.196 79.52ZM119.196 77.56C119.196 76.6 118.876 75.8533 118.236 75.32C117.596 74.76 116.796 74.48 115.836 74.48C114.876 74.48 114.089 74.7467 113.476 75.28C112.862 75.7867 112.462 76.5467 112.276 77.56H119.196ZM145.084 68.36C147.671 68.36 149.724 69.2267 151.244 70.96C152.764 72.6667 153.524 74.9867 153.524 77.92V91H145.684V78.96C145.684 77.68 145.351 76.68 144.684 75.96C144.017 75.2133 143.124 74.84 142.004 74.84C140.831 74.84 139.911 75.2133 139.244 75.96C138.577 76.68 138.244 77.68 138.244 78.96V91H130.404V68.56H138.244V71.76C138.937 70.7467 139.871 69.9333 141.044 69.32C142.217 68.68 143.564 68.36 145.084 68.36ZM198.53 69.08L191.69 91H187.93L182.65 73.6L177.37 91H173.61L166.73 69.08H170.45L175.49 87.48L180.93 69.08H184.65L189.97 87.52L194.93 69.08H198.53ZM213.023 68.68C214.676 68.68 216.169 69.04 217.503 69.76C218.836 70.4533 219.876 71.5067 220.623 72.92C221.396 74.3333 221.783 76.0533 221.783 78.08V91H218.183V78.6C218.183 76.4133 217.636 74.7467 216.543 73.6C215.449 72.4267 213.956 71.84 212.063 71.84C210.143 71.84 208.609 72.44 207.463 73.64C206.343 74.84 205.783 76.5867 205.783 78.88V91H202.143V61.4H205.783V72.2C206.503 71.08 207.489 70.2133 208.743 69.6C210.023 68.9867 211.449 68.68 213.023 68.68ZM237.288 91.36C235.235 91.36 233.368 90.8933 231.688 89.96C230.035 89.0267 228.728 87.7067 227.768 86C226.835 84.2667 226.368 82.2667 226.368 80C226.368 77.76 226.848 75.7867 227.808 74.08C228.795 72.3467 230.128 71.0267 231.808 70.12C233.488 69.1867 235.368 68.72 237.448 68.72C239.528 68.72 241.408 69.1867 243.088 70.12C244.768 71.0267 246.088 72.3333 247.048 74.04C248.035 75.7467 248.528 77.7333 248.528 80C248.528 82.2667 248.022 84.2667 247.008 86C246.022 87.7067 244.675 89.0267 242.968 89.96C241.262 90.8933 239.368 91.36 237.288 91.36ZM237.288 88.16C238.595 88.16 239.822 87.8533 240.968 87.24C242.115 86.6267 243.035 85.7067 243.728 84.48C244.448 83.2533 244.808 81.76 244.808 80C244.808 78.24 244.462 76.7467 243.768 75.52C243.075 74.2933 242.168 73.3867 241.048 72.8C239.928 72.1867 238.715 71.88 237.408 71.88C236.075 71.88 234.848 72.1867 233.728 72.8C232.635 73.3867 231.755 74.2933 231.088 75.52C230.422 76.7467 230.088 78.24 230.088 80C230.088 81.7867 230.408 83.2933 231.048 84.52C231.715 85.7467 232.595 86.6667 233.688 87.28C234.782 87.8667 235.982 88.16 237.288 88.16ZM293.178 69.08L286.338 91H282.578L277.298 73.6L272.018 91H268.258L261.378 69.08H265.098L270.138 87.48L275.578 69.08H279.298L284.618 87.52L289.578 69.08H293.178ZM295.431 79.96C295.431 77.72 295.884 75.76 296.791 74.08C297.698 72.3733 298.938 71.0533 300.511 70.12C302.111 69.1867 303.884 68.72 305.831 68.72C307.751 68.72 309.418 69.1333 310.831 69.96C312.244 70.7867 313.298 71.8267 313.991 73.08V69.08H317.671V91H313.991V86.92C313.271 88.2 312.191 89.2667 310.751 90.12C309.338 90.9467 307.684 91.36 305.791 91.36C303.844 91.36 302.084 90.88 300.511 89.92C298.938 88.96 297.698 87.6133 296.791 85.88C295.884 84.1467 295.431 82.1733 295.431 79.96ZM313.991 80C313.991 78.3467 313.658 76.9067 312.991 75.68C312.324 74.4533 311.418 73.52 310.271 72.88C309.151 72.2133 307.911 71.88 306.551 71.88C305.191 71.88 303.951 72.2 302.831 72.84C301.711 73.48 300.818 74.4133 300.151 75.64C299.484 76.8667 299.151 78.3067 299.151 79.96C299.151 81.64 299.484 83.1067 300.151 84.36C300.818 85.5867 301.711 86.5333 302.831 87.2C303.951 87.84 305.191 88.16 306.551 88.16C307.911 88.16 309.151 87.84 310.271 87.2C311.418 86.5333 312.324 85.5867 312.991 84.36C313.658 83.1067 313.991 81.6533 313.991 80ZM334.502 68.68C337.169 68.68 339.329 69.4933 340.982 71.12C342.636 72.72 343.462 75.04 343.462 78.08V91H339.862V78.6C339.862 76.4133 339.316 74.7467 338.222 73.6C337.129 72.4267 335.636 71.84 333.742 71.84C331.822 71.84 330.289 72.44 329.142 73.64C328.022 74.84 327.462 76.5867 327.462 78.88V91H323.822V69.08H327.462V72.2C328.182 71.08 329.156 70.2133 330.382 69.6C331.636 68.9867 333.009 68.68 334.502 68.68ZM353.848 72.08V85C353.848 86.0667 354.075 86.8267 354.528 87.28C354.981 87.7067 355.768 87.92 356.888 87.92H359.568V91H356.288C354.261 91 352.741 90.5333 351.728 89.6C350.715 88.6667 350.208 87.1333 350.208 85V72.08H347.368V69.08H350.208V63.56H353.848V69.08H359.568V72.08H353.848ZM373.283 79.96C373.283 77.72 373.736 75.76 374.643 74.08C375.549 72.3733 376.789 71.0533 378.363 70.12C379.963 69.1867 381.736 68.72 383.683 68.72C385.603 68.72 387.269 69.1333 388.683 69.96C390.096 70.7867 391.149 71.8267 391.843 73.08V69.08H395.523V91H391.843V86.92C391.123 88.2 390.043 89.2667 388.603 90.12C387.189 90.9467 385.536 91.36 383.643 91.36C381.696 91.36 379.936 90.88 378.363 89.92C376.789 88.96 375.549 87.6133 374.643 85.88C373.736 84.1467 373.283 82.1733 373.283 79.96ZM391.843 80C391.843 78.3467 391.509 76.9067 390.843 75.68C390.176 74.4533 389.269 73.52 388.123 72.88C387.003 72.2133 385.763 71.88 384.403 71.88C383.043 71.88 381.803 72.2 380.683 72.84C379.563 73.48 378.669 74.4133 378.003 75.64C377.336 76.8667 377.003 78.3067 377.003 79.96C377.003 81.64 377.336 83.1067 378.003 84.36C378.669 85.5867 379.563 86.5333 380.683 87.2C381.803 87.84 383.043 88.16 384.403 88.16C385.763 88.16 387.003 87.84 388.123 87.2C389.269 86.5333 390.176 85.5867 390.843 84.36C391.509 83.1067 391.843 81.6533 391.843 80ZM10.08 131.68C10.6933 130.64 11.56 129.813 12.68 129.2C13.8 128.587 15.12 128.28 16.64 128.28C18.4267 128.28 20.04 128.747 21.48 129.68C22.9467 130.613 24.0933 131.947 24.92 133.68C25.7733 135.413 26.2 137.44 26.2 139.76C26.2 142.08 25.7733 144.12 24.92 145.88C24.0933 147.613 22.9467 148.947 21.48 149.88C20.04 150.813 18.4267 151.28 16.64 151.28C15.12 151.28 13.8 150.973 12.68 150.36C11.5867 149.747 10.72 148.92 10.08 147.88V161.72H2.24V128.56H10.08V131.68ZM18.24 139.76C18.24 138.293 17.84 137.16 17.04 136.36C16.2667 135.533 15.3067 135.12 14.16 135.12C13.0133 135.12 12.04 135.533 11.24 136.36C10.4667 137.187 10.08 138.32 10.08 139.76C10.08 141.227 10.4667 142.373 11.24 143.2C12.04 144.027 13.0133 144.44 14.16 144.44C15.3067 144.44 16.2667 144.027 17.04 143.2C17.84 142.347 18.24 141.2 18.24 139.76ZM37.2675 132.52C38.1475 131.24 39.2142 130.227 40.4675 129.48C41.7208 128.733 43.0675 128.36 44.5075 128.36V136.72H42.3075C40.6008 136.72 39.3342 137.053 38.5075 137.72C37.6808 138.387 37.2675 139.547 37.2675 141.2V151H29.4275V128.56H37.2675V132.52ZM46.0381 139.76C46.0381 137.44 46.4515 135.413 47.2781 133.68C48.1315 131.947 49.2781 130.613 50.7181 129.68C52.1848 128.747 53.8115 128.28 55.5981 128.28C57.1448 128.28 58.4781 128.587 59.5981 129.2C60.7181 129.813 61.5848 130.64 62.1981 131.68V128.56H70.0381V151H62.1981V147.88C61.5848 148.92 60.7048 149.747 59.5581 150.36C58.4381 150.973 57.1181 151.28 55.5981 151.28C53.8115 151.28 52.1848 150.813 50.7181 149.88C49.2781 148.947 48.1315 147.613 47.2781 145.88C46.4515 144.12 46.0381 142.08 46.0381 139.76ZM62.1981 139.76C62.1981 138.32 61.7981 137.187 60.9981 136.36C60.2248 135.533 59.2648 135.12 58.1181 135.12C56.9448 135.12 55.9715 135.533 55.1981 136.36C54.4248 137.16 54.0381 138.293 54.0381 139.76C54.0381 141.2 54.4248 142.347 55.1981 143.2C55.9715 144.027 56.9448 144.44 58.1181 144.44C59.2648 144.44 60.2248 144.027 60.9981 143.2C61.7981 142.373 62.1981 141.227 62.1981 139.76ZM73.2256 139.76C73.2256 137.44 73.7056 135.413 74.6656 133.68C75.6256 131.947 76.959 130.613 78.6656 129.68C80.399 128.747 82.3723 128.28 84.5856 128.28C87.439 128.28 89.839 129.067 91.7856 130.64C93.7323 132.187 94.9856 134.36 95.5456 137.16H87.2256C86.7456 135.693 85.8123 134.96 84.4256 134.96C83.439 134.96 82.6523 135.373 82.0656 136.2C81.5056 137 81.2256 138.187 81.2256 139.76C81.2256 141.333 81.5056 142.533 82.0656 143.36C82.6523 144.187 83.439 144.6 84.4256 144.6C85.839 144.6 86.7723 143.867 87.2256 142.4H95.5456C94.9856 145.173 93.7323 147.347 91.7856 148.92C89.839 150.493 87.439 151.28 84.5856 151.28C82.3723 151.28 80.399 150.813 78.6656 149.88C76.959 148.947 75.6256 147.613 74.6656 145.88C73.7056 144.147 73.2256 142.107 73.2256 139.76ZM112.043 144.32V151H108.643C102.909 151 100.043 148.16 100.043 142.48V135.08H97.2825V128.56H100.043V123.12H107.923V128.56H112.003V135.08H107.923V142.6C107.923 143.213 108.056 143.653 108.322 143.92C108.616 144.187 109.096 144.32 109.763 144.32H112.043ZM119.598 126.48C118.212 126.48 117.092 126.107 116.238 125.36C115.412 124.587 114.998 123.627 114.998 122.48C114.998 121.307 115.412 120.333 116.238 119.56C117.092 118.787 118.212 118.4 119.598 118.4C120.958 118.4 122.052 118.787 122.878 119.56C123.732 120.333 124.158 121.307 124.158 122.48C124.158 123.627 123.732 124.587 122.878 125.36C122.052 126.107 120.958 126.48 119.598 126.48ZM123.478 128.56V151H115.638V128.56H123.478ZM126.663 139.76C126.663 137.44 127.143 135.413 128.103 133.68C129.063 131.947 130.396 130.613 132.103 129.68C133.836 128.747 135.81 128.28 138.023 128.28C140.876 128.28 143.276 129.067 145.223 130.64C147.17 132.187 148.423 134.36 148.983 137.16H140.663C140.183 135.693 139.25 134.96 137.863 134.96C136.876 134.96 136.09 135.373 135.503 136.2C134.943 137 134.663 138.187 134.663 139.76C134.663 141.333 134.943 142.533 135.503 143.36C136.09 144.187 136.876 144.6 137.863 144.6C139.276 144.6 140.21 143.867 140.663 142.4H148.983C148.423 145.173 147.17 147.347 145.223 148.92C143.276 150.493 140.876 151.28 138.023 151.28C135.81 151.28 133.836 150.813 132.103 149.88C130.396 148.947 129.063 147.613 128.103 145.88C127.143 144.147 126.663 142.107 126.663 139.76ZM150.96 139.76C150.96 137.44 151.373 135.413 152.2 133.68C153.053 131.947 154.2 130.613 155.64 129.68C157.107 128.747 158.733 128.28 160.52 128.28C162.067 128.28 163.4 128.587 164.52 129.2C165.64 129.813 166.507 130.64 167.12 131.68V128.56H174.96V151H167.12V147.88C166.507 148.92 165.627 149.747 164.48 150.36C163.36 150.973 162.04 151.28 160.52 151.28C158.733 151.28 157.107 150.813 155.64 149.88C154.2 148.947 153.053 147.613 152.2 145.88C151.373 144.12 150.96 142.08 150.96 139.76ZM167.12 139.76C167.12 138.32 166.72 137.187 165.92 136.36C165.147 135.533 164.187 135.12 163.04 135.12C161.867 135.12 160.893 135.533 160.12 136.36C159.347 137.16 158.96 138.293 158.96 139.76C158.96 141.2 159.347 142.347 160.12 143.2C160.893 144.027 161.867 144.44 163.04 144.44C164.187 144.44 165.147 144.027 165.92 143.2C166.72 142.373 167.12 141.227 167.12 139.76ZM187.268 121.4V151H179.428V121.4H187.268ZM198.108 139.76C198.108 137.44 198.522 135.413 199.348 133.68C200.202 131.947 201.348 130.613 202.788 129.68C204.255 128.747 205.882 128.28 207.668 128.28C209.215 128.28 210.548 128.587 211.668 129.2C212.788 129.813 213.655 130.64 214.268 131.68V128.56H222.108V151H214.268V147.88C213.655 148.92 212.775 149.747 211.628 150.36C210.508 150.973 209.188 151.28 207.668 151.28C205.882 151.28 204.255 150.813 202.788 149.88C201.348 148.947 200.202 147.613 199.348 145.88C198.522 144.12 198.108 142.08 198.108 139.76ZM214.268 139.76C214.268 138.32 213.868 137.187 213.068 136.36C212.295 135.533 211.335 135.12 210.188 135.12C209.015 135.12 208.042 135.533 207.268 136.36C206.495 137.16 206.108 138.293 206.108 139.76C206.108 141.2 206.495 142.347 207.268 143.2C208.042 144.027 209.015 144.44 210.188 144.44C211.335 144.44 212.295 144.027 213.068 143.2C213.868 142.373 214.268 141.227 214.268 139.76ZM241.256 128.36C243.843 128.36 245.896 129.227 247.416 130.96C248.936 132.667 249.696 134.987 249.696 137.92V151H241.856V138.96C241.856 137.68 241.523 136.68 240.856 135.96C240.189 135.213 239.296 134.84 238.176 134.84C237.003 134.84 236.083 135.213 235.416 135.96C234.749 136.68 234.416 137.68 234.416 138.96V151H226.576V128.56H234.416V131.76C235.109 130.747 236.043 129.933 237.216 129.32C238.389 128.68 239.736 128.36 241.256 128.36ZM252.718 139.76C252.718 137.44 253.131 135.413 253.958 133.68C254.811 131.947 255.971 130.613 257.438 129.68C258.904 128.747 260.531 128.28 262.318 128.28C263.758 128.28 265.038 128.587 266.158 129.2C267.304 129.787 268.198 130.6 268.838 131.64V121.4H276.718V151H268.838V147.88C268.224 148.92 267.358 149.747 266.238 150.36C265.118 150.973 263.798 151.28 262.278 151.28C260.491 151.28 258.864 150.813 257.398 149.88C255.958 148.947 254.811 147.613 253.958 145.88C253.131 144.12 252.718 142.08 252.718 139.76ZM268.878 139.76C268.878 138.32 268.478 137.187 267.678 136.36C266.904 135.533 265.944 135.12 264.798 135.12C263.624 135.12 262.651 135.533 261.878 136.36C261.104 137.16 260.718 138.293 260.718 139.76C260.718 141.2 261.104 142.347 261.878 143.2C262.651 144.027 263.624 144.44 264.798 144.44C265.944 144.44 266.904 144.027 267.678 143.2C268.478 142.373 268.878 141.227 268.878 139.76ZM310.282 139.52C310.282 140.133 310.242 140.747 310.162 141.36H295.322C295.402 142.587 295.735 143.507 296.322 144.12C296.935 144.707 297.708 145 298.642 145C299.948 145 300.882 144.413 301.442 143.24H309.802C309.455 144.787 308.775 146.173 307.762 147.4C306.775 148.6 305.522 149.547 304.002 150.24C302.482 150.933 300.802 151.28 298.962 151.28C296.748 151.28 294.775 150.813 293.042 149.88C291.335 148.947 289.988 147.613 289.002 145.88C288.042 144.147 287.562 142.107 287.562 139.76C287.562 137.413 288.042 135.387 289.002 133.68C289.962 131.947 291.295 130.613 293.002 129.68C294.735 128.747 296.722 128.28 298.962 128.28C301.175 128.28 303.135 128.733 304.842 129.64C306.548 130.547 307.882 131.853 308.842 133.56C309.802 135.24 310.282 137.227 310.282 139.52ZM302.282 137.56C302.282 136.6 301.962 135.853 301.322 135.32C300.682 134.76 299.882 134.48 298.922 134.48C297.962 134.48 297.175 134.747 296.562 135.28C295.948 135.787 295.548 136.547 295.362 137.56H302.282ZM325.61 135.08H322.09V151H314.21V135.08H311.77V128.56H314.21V128.36C314.21 125.48 315.05 123.28 316.73 121.76C318.437 120.213 320.877 119.44 324.05 119.44C324.69 119.44 325.183 119.453 325.53 119.48V126.16C325.317 126.133 325.023 126.12 324.65 126.12C323.797 126.12 323.17 126.32 322.77 126.72C322.37 127.093 322.143 127.707 322.09 128.56H325.61V135.08ZM340.532 135.08H337.012V151H329.132V135.08H326.692V128.56H329.132V128.36C329.132 125.48 329.972 123.28 331.652 121.76C333.359 120.213 335.799 119.44 338.972 119.44C339.612 119.44 340.105 119.453 340.452 119.48V126.16C340.239 126.133 339.945 126.12 339.572 126.12C338.719 126.12 338.092 126.32 337.692 126.72C337.292 127.093 337.065 127.707 337.012 128.56H340.532V135.08ZM364.774 139.52C364.774 140.133 364.734 140.747 364.654 141.36H349.814C349.894 142.587 350.227 143.507 350.814 144.12C351.427 144.707 352.2 145 353.134 145C354.44 145 355.374 144.413 355.934 143.24H364.294C363.947 144.787 363.267 146.173 362.254 147.4C361.267 148.6 360.014 149.547 358.494 150.24C356.974 150.933 355.294 151.28 353.454 151.28C351.24 151.28 349.267 150.813 347.534 149.88C345.827 148.947 344.48 147.613 343.494 145.88C342.534 144.147 342.054 142.107 342.054 139.76C342.054 137.413 342.534 135.387 343.494 133.68C344.454 131.947 345.787 130.613 347.494 129.68C349.227 128.747 351.214 128.28 353.454 128.28C355.667 128.28 357.627 128.733 359.334 129.64C361.04 130.547 362.374 131.853 363.334 133.56C364.294 135.24 364.774 137.227 364.774 139.52ZM356.774 137.56C356.774 136.6 356.454 135.853 355.814 135.32C355.174 134.76 354.374 134.48 353.414 134.48C352.454 134.48 351.667 134.747 351.054 135.28C350.44 135.787 350.04 136.547 349.854 137.56H356.774ZM366.702 139.76C366.702 137.44 367.182 135.413 368.142 133.68C369.102 131.947 370.436 130.613 372.142 129.68C373.876 128.747 375.849 128.28 378.062 128.28C380.916 128.28 383.316 129.067 385.262 130.64C387.209 132.187 388.462 134.36 389.022 137.16H380.702C380.222 135.693 379.289 134.96 377.902 134.96C376.916 134.96 376.129 135.373 375.542 136.2C374.982 137 374.702 138.187 374.702 139.76C374.702 141.333 374.982 142.533 375.542 143.36C376.129 144.187 376.916 144.6 377.902 144.6C379.316 144.6 380.249 143.867 380.702 142.4H389.022C388.462 145.173 387.209 147.347 385.262 148.92C383.316 150.493 380.916 151.28 378.062 151.28C375.849 151.28 373.876 150.813 372.142 149.88C370.436 148.947 369.102 147.613 368.142 145.88C367.182 144.147 366.702 142.107 366.702 139.76ZM405.519 144.32V151H402.119C396.386 151 393.519 148.16 393.519 142.48V135.08H390.759V128.56H393.519V123.12H401.399V128.56H405.479V135.08H401.399V142.6C401.399 143.213 401.532 143.653 401.799 143.92C402.092 144.187 402.572 144.32 403.239 144.32H405.519ZM413.075 126.48C411.688 126.48 410.568 126.107 409.715 125.36C408.888 124.587 408.475 123.627 408.475 122.48C408.475 121.307 408.888 120.333 409.715 119.56C410.568 118.787 411.688 118.4 413.075 118.4C414.435 118.4 415.528 118.787 416.355 119.56C417.208 120.333 417.635 121.307 417.635 122.48C417.635 123.627 417.208 124.587 416.355 125.36C415.528 126.107 414.435 126.48 413.075 126.48ZM416.955 128.56V151H409.115V128.56H416.955ZM432.18 143.6L436.38 128.56H444.74L437.02 151H427.26L419.54 128.56H427.9L432.18 143.6ZM468.836 139.52C468.836 140.133 468.796 140.747 468.716 141.36H453.876C453.956 142.587 454.29 143.507 454.876 144.12C455.49 144.707 456.263 145 457.196 145C458.503 145 459.436 144.413 459.996 143.24H468.356C468.01 144.787 467.33 146.173 466.316 147.4C465.33 148.6 464.076 149.547 462.556 150.24C461.036 150.933 459.356 151.28 457.516 151.28C455.303 151.28 453.33 150.813 451.596 149.88C449.89 148.947 448.543 147.613 447.556 145.88C446.596 144.147 446.116 142.107 446.116 139.76C446.116 137.413 446.596 135.387 447.556 133.68C448.516 131.947 449.85 130.613 451.556 129.68C453.29 128.747 455.276 128.28 457.516 128.28C459.73 128.28 461.69 128.733 463.396 129.64C465.103 130.547 466.436 131.853 467.396 133.56C468.356 135.24 468.836 137.227 468.836 139.52ZM460.836 137.56C460.836 136.6 460.516 135.853 459.876 135.32C459.236 134.76 458.436 134.48 457.476 134.48C456.516 134.48 455.73 134.747 455.116 135.28C454.503 135.787 454.103 136.547 453.916 137.56H460.836ZM10.08 192.52C10.96 191.24 12.0267 190.227 13.28 189.48C14.5333 188.733 15.88 188.36 17.32 188.36V196.72H15.12C13.4133 196.72 12.1467 197.053 11.32 197.72C10.4933 198.387 10.08 199.547 10.08 201.2V211H2.24V188.56H10.08V192.52ZM41.5706 199.52C41.5706 200.133 41.5306 200.747 41.4506 201.36H26.6106C26.6906 202.587 27.024 203.507 27.6106 204.12C28.224 204.707 28.9973 205 29.9306 205C31.2373 205 32.1706 204.413 32.7306 203.24H41.0906C40.744 204.787 40.064 206.173 39.0506 207.4C38.064 208.6 36.8106 209.547 35.2906 210.24C33.7706 210.933 32.0906 211.28 30.2506 211.28C28.0373 211.28 26.064 210.813 24.3306 209.88C22.624 208.947 21.2773 207.613 20.2906 205.88C19.3306 204.147 18.8506 202.107 18.8506 199.76C18.8506 197.413 19.3306 195.387 20.2906 193.68C21.2506 191.947 22.584 190.613 24.2906 189.68C26.024 188.747 28.0106 188.28 30.2506 188.28C32.464 188.28 34.424 188.733 36.1306 189.64C37.8373 190.547 39.1706 191.853 40.1306 193.56C41.0906 195.24 41.5706 197.227 41.5706 199.52ZM33.5706 197.56C33.5706 196.6 33.2506 195.853 32.6106 195.32C31.9706 194.76 31.1706 194.48 30.2106 194.48C29.2506 194.48 28.464 194.747 27.8506 195.28C27.2373 195.787 26.8373 196.547 26.6506 197.56H33.5706ZM54.3391 211.28C52.3124 211.28 50.4991 210.947 48.8991 210.28C47.3257 209.587 46.0724 208.653 45.1391 207.48C44.2324 206.28 43.7257 204.933 43.6191 203.44H51.2191C51.3257 204.16 51.6591 204.72 52.2191 205.12C52.7791 205.52 53.4724 205.72 54.2991 205.72C54.9391 205.72 55.4457 205.587 55.8191 205.32C56.1924 205.053 56.3791 204.707 56.3791 204.28C56.3791 203.72 56.0724 203.307 55.4591 203.04C54.8457 202.773 53.8324 202.48 52.4191 202.16C50.8191 201.84 49.4857 201.48 48.4191 201.08C47.3524 200.68 46.4191 200.027 45.6191 199.12C44.8457 198.213 44.4591 196.987 44.4591 195.44C44.4591 194.107 44.8191 192.907 45.5391 191.84C46.2591 190.747 47.3124 189.88 48.6991 189.24C50.1124 188.6 51.8057 188.28 53.7791 188.28C56.7124 188.28 59.0191 189 60.6991 190.44C62.3791 191.88 63.3524 193.773 63.6191 196.12H56.5391C56.4057 195.4 56.0857 194.853 55.5791 194.48C55.0991 194.08 54.4457 193.88 53.6191 193.88C52.9791 193.88 52.4857 194 52.1391 194.24C51.8191 194.48 51.6591 194.813 51.6591 195.24C51.6591 195.773 51.9657 196.187 52.5791 196.48C53.1924 196.747 54.1791 197.027 55.5391 197.32C57.1657 197.667 58.5124 198.053 59.5791 198.48C60.6724 198.907 61.6191 199.6 62.4191 200.56C63.2457 201.493 63.6591 202.773 63.6591 204.4C63.6591 205.707 63.2724 206.88 62.4991 207.92C61.7524 208.96 60.6724 209.787 59.2591 210.4C57.8724 210.987 56.2324 211.28 54.3391 211.28ZM77.9534 211.28C75.7134 211.28 73.7001 210.813 71.9134 209.88C70.1534 208.947 68.7668 207.613 67.7534 205.88C66.7401 204.147 66.2334 202.107 66.2334 199.76C66.2334 197.44 66.7401 195.413 67.7534 193.68C68.7934 191.947 70.1934 190.613 71.9534 189.68C73.7401 188.747 75.7534 188.28 77.9934 188.28C80.2334 188.28 82.2334 188.747 83.9934 189.68C85.7801 190.613 87.1801 191.947 88.1934 193.68C89.2334 195.413 89.7534 197.44 89.7534 199.76C89.7534 202.08 89.2334 204.12 88.1934 205.88C87.1801 207.613 85.7801 208.947 83.9934 209.88C82.2068 210.813 80.1934 211.28 77.9534 211.28ZM77.9534 204.48C79.0468 204.48 79.9534 204.08 80.6734 203.28C81.4201 202.453 81.7934 201.28 81.7934 199.76C81.7934 198.24 81.4201 197.08 80.6734 196.28C79.9534 195.48 79.0601 195.08 77.9934 195.08C76.9268 195.08 76.0334 195.48 75.3134 196.28C74.5934 197.08 74.2334 198.24 74.2334 199.76C74.2334 201.307 74.5801 202.48 75.2734 203.28C75.9668 204.08 76.8601 204.48 77.9534 204.48ZM115.903 188.56V211H108.023V207.8C107.356 208.813 106.436 209.64 105.263 210.28C104.09 210.893 102.743 211.2 101.223 211.2C98.6098 211.2 96.5431 210.347 95.0231 208.64C93.5298 206.907 92.7831 204.56 92.7831 201.6V188.56H100.583V200.6C100.583 201.88 100.916 202.893 101.583 203.64C102.276 204.36 103.183 204.72 104.303 204.72C105.45 204.72 106.356 204.36 107.023 203.64C107.69 202.893 108.023 201.88 108.023 200.6V188.56H115.903ZM128.205 192.52C129.085 191.24 130.152 190.227 131.405 189.48C132.658 188.733 134.005 188.36 135.445 188.36V196.72H133.245C131.538 196.72 130.272 197.053 129.445 197.72C128.618 198.387 128.205 199.547 128.205 201.2V211H120.365V188.56H128.205V192.52ZM136.976 199.76C136.976 197.44 137.456 195.413 138.416 193.68C139.376 191.947 140.709 190.613 142.416 189.68C144.149 188.747 146.122 188.28 148.336 188.28C151.189 188.28 153.589 189.067 155.536 190.64C157.482 192.187 158.736 194.36 159.296 197.16H150.976C150.496 195.693 149.562 194.96 148.176 194.96C147.189 194.96 146.402 195.373 145.816 196.2C145.256 197 144.976 198.187 144.976 199.76C144.976 201.333 145.256 202.533 145.816 203.36C146.402 204.187 147.189 204.6 148.176 204.6C149.589 204.6 150.522 203.867 150.976 202.4H159.296C158.736 205.173 157.482 207.347 155.536 208.92C153.589 210.493 151.189 211.28 148.336 211.28C146.122 211.28 144.149 210.813 142.416 209.88C140.709 208.947 139.376 207.613 138.416 205.88C137.456 204.147 136.976 202.107 136.976 199.76ZM183.993 199.52C183.993 200.133 183.953 200.747 183.873 201.36H169.033C169.113 202.587 169.446 203.507 170.033 204.12C170.646 204.707 171.419 205 172.353 205C173.659 205 174.593 204.413 175.153 203.24H183.513C183.166 204.787 182.486 206.173 181.473 207.4C180.486 208.6 179.233 209.547 177.713 210.24C176.193 210.933 174.513 211.28 172.673 211.28C170.459 211.28 168.486 210.813 166.753 209.88C165.046 208.947 163.699 207.613 162.713 205.88C161.753 204.147 161.273 202.107 161.273 199.76C161.273 197.413 161.753 195.387 162.713 193.68C163.673 191.947 165.006 190.613 166.713 189.68C168.446 188.747 170.433 188.28 172.673 188.28C174.886 188.28 176.846 188.733 178.553 189.64C180.259 190.547 181.593 191.853 182.553 193.56C183.513 195.24 183.993 197.227 183.993 199.52ZM175.993 197.56C175.993 196.6 175.673 195.853 175.033 195.32C174.393 194.76 173.593 194.48 172.633 194.48C171.673 194.48 170.886 194.747 170.273 195.28C169.659 195.787 169.259 196.547 169.073 197.56H175.993ZM207.625 192.08H203.025V211H199.385V192.08H196.545V189.08H199.385V187.52C199.385 185.067 200.012 183.28 201.265 182.16C202.545 181.013 204.585 180.44 207.385 180.44V183.48C205.785 183.48 204.652 183.8 203.985 184.44C203.345 185.053 203.025 186.08 203.025 187.52V189.08H207.625V192.08ZM221.429 211.36C219.376 211.36 217.509 210.893 215.829 209.96C214.176 209.027 212.869 207.707 211.909 206C210.976 204.267 210.509 202.267 210.509 200C210.509 197.76 210.989 195.787 211.949 194.08C212.936 192.347 214.269 191.027 215.949 190.12C217.629 189.187 219.509 188.72 221.589 188.72C223.669 188.72 225.549 189.187 227.229 190.12C228.909 191.027 230.229 192.333 231.189 194.04C232.176 195.747 232.669 197.733 232.669 200C232.669 202.267 232.162 204.267 231.149 206C230.162 207.707 228.816 209.027 227.109 209.96C225.402 210.893 223.509 211.36 221.429 211.36ZM221.429 208.16C222.736 208.16 223.962 207.853 225.109 207.24C226.256 206.627 227.176 205.707 227.869 204.48C228.589 203.253 228.949 201.76 228.949 200C228.949 198.24 228.602 196.747 227.909 195.52C227.216 194.293 226.309 193.387 225.189 192.8C224.069 192.187 222.856 191.88 221.549 191.88C220.216 191.88 218.989 192.187 217.869 192.8C216.776 193.387 215.896 194.293 215.229 195.52C214.562 196.747 214.229 198.24 214.229 200C214.229 201.787 214.549 203.293 215.189 204.52C215.856 205.747 216.736 206.667 217.829 207.28C218.922 207.867 220.122 208.16 221.429 208.16ZM241.095 192.64C241.735 191.387 242.642 190.413 243.815 189.72C245.015 189.027 246.468 188.68 248.175 188.68V192.44H247.215C243.135 192.44 241.095 194.653 241.095 199.08V211H237.455V189.08H241.095V192.64ZM283.041 199.2C283.041 199.893 283.001 200.627 282.921 201.4H265.401C265.534 203.56 266.268 205.253 267.601 206.48C268.961 207.68 270.601 208.28 272.521 208.28C274.094 208.28 275.401 207.92 276.441 207.2C277.508 206.453 278.254 205.467 278.681 204.24H282.601C282.014 206.347 280.841 208.067 279.081 209.4C277.321 210.707 275.134 211.36 272.521 211.36C270.441 211.36 268.574 210.893 266.921 209.96C265.294 209.027 264.014 207.707 263.081 206C262.148 204.267 261.681 202.267 261.681 200C261.681 197.733 262.134 195.747 263.041 194.04C263.948 192.333 265.214 191.027 266.841 190.12C268.494 189.187 270.388 188.72 272.521 188.72C274.601 188.72 276.441 189.173 278.041 190.08C279.641 190.987 280.868 192.24 281.721 193.84C282.601 195.413 283.041 197.2 283.041 199.2ZM279.281 198.44C279.281 197.053 278.974 195.867 278.361 194.88C277.748 193.867 276.908 193.107 275.841 192.6C274.801 192.067 273.641 191.8 272.361 191.8C270.521 191.8 268.948 192.387 267.641 193.56C266.361 194.733 265.628 196.36 265.441 198.44H279.281ZM314.206 188.68C315.912 188.68 317.432 189.04 318.766 189.76C320.099 190.453 321.152 191.507 321.926 192.92C322.699 194.333 323.086 196.053 323.086 198.08V211H319.486V198.6C319.486 196.413 318.939 194.747 317.846 193.6C316.779 192.427 315.326 191.84 313.486 191.84C311.592 191.84 310.086 192.453 308.966 193.68C307.846 194.88 307.286 196.627 307.286 198.92V211H303.686V198.6C303.686 196.413 303.139 194.747 302.046 193.6C300.979 192.427 299.526 191.84 297.686 191.84C295.792 191.84 294.286 192.453 293.166 193.68C292.046 194.88 291.486 196.627 291.486 198.92V211H287.846V189.08H291.486V192.24C292.206 191.093 293.166 190.213 294.366 189.6C295.592 188.987 296.939 188.68 298.406 188.68C300.246 188.68 301.872 189.093 303.286 189.92C304.699 190.747 305.752 191.96 306.446 193.56C307.059 192.013 308.072 190.813 309.486 189.96C310.899 189.107 312.472 188.68 314.206 188.68ZM349.057 199.2C349.057 199.893 349.017 200.627 348.937 201.4H331.417C331.55 203.56 332.283 205.253 333.617 206.48C334.977 207.68 336.617 208.28 338.537 208.28C340.11 208.28 341.417 207.92 342.457 207.2C343.523 206.453 344.27 205.467 344.697 204.24H348.617C348.03 206.347 346.857 208.067 345.097 209.4C343.337 210.707 341.15 211.36 338.537 211.36C336.457 211.36 334.59 210.893 332.937 209.96C331.31 209.027 330.03 207.707 329.097 206C328.163 204.267 327.697 202.267 327.697 200C327.697 197.733 328.15 195.747 329.057 194.04C329.963 192.333 331.23 191.027 332.857 190.12C334.51 189.187 336.403 188.72 338.537 188.72C340.617 188.72 342.457 189.173 344.057 190.08C345.657 190.987 346.883 192.24 347.737 193.84C348.617 195.413 349.057 197.2 349.057 199.2ZM345.297 198.44C345.297 197.053 344.99 195.867 344.377 194.88C343.763 193.867 342.923 193.107 341.857 192.6C340.817 192.067 339.657 191.8 338.377 191.8C336.537 191.8 334.963 192.387 333.657 193.56C332.377 194.733 331.643 196.36 331.457 198.44H345.297ZM357.501 192.64C358.141 191.387 359.048 190.413 360.221 189.72C361.421 189.027 362.875 188.68 364.581 188.68V192.44H363.621C359.541 192.44 357.501 194.653 357.501 199.08V211H353.861V189.08H357.501V192.64ZM377.823 188.72C379.716 188.72 381.37 189.133 382.783 189.96C384.223 190.787 385.29 191.827 385.983 193.08V189.08H389.663V211.48C389.663 213.48 389.236 215.253 388.383 216.8C387.53 218.373 386.303 219.6 384.703 220.48C383.13 221.36 381.29 221.8 379.183 221.8C376.303 221.8 373.903 221.12 371.983 219.76C370.063 218.4 368.93 216.547 368.583 214.2H372.183C372.583 215.533 373.41 216.6 374.663 217.4C375.916 218.227 377.423 218.64 379.183 218.64C381.183 218.64 382.81 218.013 384.063 216.76C385.343 215.507 385.983 213.747 385.983 211.48V206.88C385.263 208.16 384.196 209.227 382.783 210.08C381.37 210.933 379.716 211.36 377.823 211.36C375.876 211.36 374.103 210.88 372.503 209.92C370.93 208.96 369.69 207.613 368.783 205.88C367.876 204.147 367.423 202.173 367.423 199.96C367.423 197.72 367.876 195.76 368.783 194.08C369.69 192.373 370.93 191.053 372.503 190.12C374.103 189.187 375.876 188.72 377.823 188.72ZM385.983 200C385.983 198.347 385.65 196.907 384.983 195.68C384.316 194.453 383.41 193.52 382.263 192.88C381.143 192.213 379.903 191.88 378.543 191.88C377.183 191.88 375.943 192.2 374.823 192.84C373.703 193.48 372.81 194.413 372.143 195.64C371.476 196.867 371.143 198.307 371.143 199.96C371.143 201.64 371.476 203.107 372.143 204.36C372.81 205.587 373.703 206.533 374.823 207.2C375.943 207.84 377.183 208.16 378.543 208.16C379.903 208.16 381.143 207.84 382.263 207.2C383.41 206.533 384.316 205.587 384.983 204.36C385.65 203.107 385.983 201.653 385.983 200ZM415.814 199.2C415.814 199.893 415.774 200.627 415.694 201.4H398.174C398.308 203.56 399.041 205.253 400.374 206.48C401.734 207.68 403.374 208.28 405.294 208.28C406.868 208.28 408.174 207.92 409.214 207.2C410.281 206.453 411.028 205.467 411.454 204.24H415.374C414.788 206.347 413.614 208.067 411.854 209.4C410.094 210.707 407.908 211.36 405.294 211.36C403.214 211.36 401.348 210.893 399.694 209.96C398.068 209.027 396.788 207.707 395.854 206C394.921 204.267 394.454 202.267 394.454 200C394.454 197.733 394.908 195.747 395.814 194.04C396.721 192.333 397.988 191.027 399.614 190.12C401.268 189.187 403.161 188.72 405.294 188.72C407.374 188.72 409.214 189.173 410.814 190.08C412.414 190.987 413.641 192.24 414.494 193.84C415.374 195.413 415.814 197.2 415.814 199.2ZM412.054 198.44C412.054 197.053 411.748 195.867 411.134 194.88C410.521 193.867 409.681 193.107 408.614 192.6C407.574 192.067 406.414 191.8 405.134 191.8C403.294 191.8 401.721 192.387 400.414 193.56C399.134 194.733 398.401 196.36 398.214 198.44H412.054ZM431.299 188.68C433.966 188.68 436.126 189.493 437.779 191.12C439.432 192.72 440.259 195.04 440.259 198.08V211H436.659V198.6C436.659 196.413 436.112 194.747 435.019 193.6C433.926 192.427 432.432 191.84 430.539 191.84C428.619 191.84 427.086 192.44 425.939 193.64C424.819 194.84 424.259 196.587 424.259 198.88V211H420.619V189.08H424.259V192.2C424.979 191.08 425.952 190.213 427.179 189.6C428.432 188.987 429.806 188.68 431.299 188.68ZM444.845 200C444.845 197.733 445.298 195.76 446.205 194.08C447.112 192.373 448.365 191.053 449.965 190.12C451.592 189.187 453.445 188.72 455.525 188.72C458.218 188.72 460.432 189.373 462.165 190.68C463.925 191.987 465.085 193.8 465.645 196.12H461.725C461.352 194.787 460.618 193.733 459.525 192.96C458.458 192.187 457.125 191.8 455.525 191.8C453.445 191.8 451.765 192.52 450.485 193.96C449.205 195.373 448.565 197.387 448.565 200C448.565 202.64 449.205 204.68 450.485 206.12C451.765 207.56 453.445 208.28 455.525 208.28C457.125 208.28 458.458 207.907 459.525 207.16C460.592 206.413 461.325 205.347 461.725 203.96H465.645C465.058 206.2 463.885 208 462.125 209.36C460.365 210.693 458.165 211.36 455.525 211.36C453.445 211.36 451.592 210.893 449.965 209.96C448.365 209.027 447.112 207.707 446.205 206C445.298 204.293 444.845 202.293 444.845 200ZM472.382 185.52C471.689 185.52 471.102 185.28 470.622 184.8C470.142 184.32 469.902 183.733 469.902 183.04C469.902 182.347 470.142 181.76 470.622 181.28C471.102 180.8 471.689 180.56 472.382 180.56C473.049 180.56 473.609 180.8 474.062 181.28C474.542 181.76 474.782 182.347 474.782 183.04C474.782 183.733 474.542 184.32 474.062 184.8C473.609 185.28 473.049 185.52 472.382 185.52ZM474.142 189.08V211H470.502V189.08H474.142ZM500.346 199.2C500.346 199.893 500.306 200.627 500.226 201.4H482.706C482.839 203.56 483.572 205.253 484.906 206.48C486.266 207.68 487.906 208.28 489.826 208.28C491.399 208.28 492.706 207.92 493.746 207.2C494.812 206.453 495.559 205.467 495.986 204.24H499.906C499.319 206.347 498.146 208.067 496.386 209.4C494.626 210.707 492.439 211.36 489.826 211.36C487.746 211.36 485.879 210.893 484.226 209.96C482.599 209.027 481.319 207.707 480.386 206C479.452 204.267 478.986 202.267 478.986 200C478.986 197.733 479.439 195.747 480.346 194.04C481.252 192.333 482.519 191.027 484.146 190.12C485.799 189.187 487.692 188.72 489.826 188.72C491.906 188.72 493.746 189.173 495.346 190.08C496.946 190.987 498.172 192.24 499.026 193.84C499.906 195.413 500.346 197.2 500.346 199.2ZM496.586 198.44C496.586 197.053 496.279 195.867 495.666 194.88C495.052 193.867 494.212 193.107 493.146 192.6C492.106 192.067 490.946 191.8 489.666 191.8C487.826 191.8 486.252 192.387 484.946 193.56C483.666 194.733 482.932 196.36 482.746 198.44H496.586ZM512.91 211.36C511.23 211.36 509.724 211.08 508.39 210.52C507.057 209.933 506.004 209.133 505.23 208.12C504.457 207.08 504.03 205.893 503.95 204.56H507.71C507.817 205.653 508.324 206.547 509.23 207.24C510.164 207.933 511.377 208.28 512.87 208.28C514.257 208.28 515.35 207.973 516.15 207.36C516.95 206.747 517.35 205.973 517.35 205.04C517.35 204.08 516.924 203.373 516.07 202.92C515.217 202.44 513.897 201.973 512.11 201.52C510.484 201.093 509.15 200.667 508.11 200.24C507.097 199.787 506.217 199.133 505.47 198.28C504.75 197.4 504.39 196.253 504.39 194.84C504.39 193.72 504.724 192.693 505.39 191.76C506.057 190.827 507.004 190.093 508.23 189.56C509.457 189 510.857 188.72 512.43 188.72C514.857 188.72 516.817 189.333 518.31 190.56C519.804 191.787 520.604 193.467 520.71 195.6H517.07C516.99 194.453 516.524 193.533 515.67 192.84C514.844 192.147 513.724 191.8 512.31 191.8C511.004 191.8 509.964 192.08 509.19 192.64C508.417 193.2 508.03 193.933 508.03 194.84C508.03 195.56 508.257 196.16 508.71 196.64C509.19 197.093 509.777 197.467 510.47 197.76C511.19 198.027 512.177 198.333 513.43 198.68C515.004 199.107 516.284 199.533 517.27 199.96C518.257 200.36 519.097 200.973 519.79 201.8C520.51 202.627 520.884 203.707 520.91 205.04C520.91 206.24 520.577 207.32 519.91 208.28C519.244 209.24 518.297 210 517.07 210.56C515.87 211.093 514.484 211.36 512.91 211.36ZM529.809 205.96L525.329 216.72H522.889L525.809 205.96H529.809ZM4.96 245.52C4.26667 245.52 3.68 245.28 3.2 244.8C2.72 244.32 2.48 243.733 2.48 243.04C2.48 242.347 2.72 241.76 3.2 241.28C3.68 240.8 4.26667 240.56 4.96 240.56C5.62667 240.56 6.18667 240.8 6.64 241.28C7.12 241.76 7.36 242.347 7.36 243.04C7.36 243.733 7.12 244.32 6.64 244.8C6.18667 245.28 5.62667 245.52 4.96 245.52ZM6.72 249.08V271H3.08V249.08H6.72ZM23.6038 248.68C26.2704 248.68 28.4304 249.493 30.0838 251.12C31.7371 252.72 32.5638 255.04 32.5638 258.08V271H28.9638V258.6C28.9638 256.413 28.4171 254.747 27.3238 253.6C26.2304 252.427 24.7371 251.84 22.8438 251.84C20.9238 251.84 19.3904 252.44 18.2438 253.64C17.1238 254.84 16.5638 256.587 16.5638 258.88V271H12.9238V249.08H16.5638V252.2C17.2838 251.08 18.2571 250.213 19.4838 249.6C20.7371 248.987 22.1104 248.68 23.6038 248.68ZM37.1497 260C37.1497 257.733 37.603 255.76 38.5097 254.08C39.4164 252.373 40.6697 251.053 42.2697 250.12C43.8964 249.187 45.7497 248.72 47.8297 248.72C50.523 248.72 52.7364 249.373 54.4697 250.68C56.2297 251.987 57.3897 253.8 57.9497 256.12H54.0297C53.6564 254.787 52.923 253.733 51.8297 252.96C50.763 252.187 49.4297 251.8 47.8297 251.8C45.7497 251.8 44.0697 252.52 42.7897 253.96C41.5097 255.373 40.8697 257.387 40.8697 260C40.8697 262.64 41.5097 264.68 42.7897 266.12C44.0697 267.56 45.7497 268.28 47.8297 268.28C49.4297 268.28 50.763 267.907 51.8297 267.16C52.8964 266.413 53.6297 265.347 54.0297 263.96H57.9497C57.363 266.2 56.1897 268 54.4297 269.36C52.6697 270.693 50.4697 271.36 47.8297 271.36C45.7497 271.36 43.8964 270.893 42.2697 269.96C40.6697 269.027 39.4164 267.707 38.5097 266C37.603 264.293 37.1497 262.293 37.1497 260ZM66.4466 252.64C67.0866 251.387 67.9932 250.413 69.1666 249.72C70.3666 249.027 71.8199 248.68 73.5266 248.68V252.44H72.5666C68.4866 252.44 66.4466 254.653 66.4466 259.08V271H62.8066V249.08H66.4466V252.64ZM97.7284 259.2C97.7284 259.893 97.6884 260.627 97.6084 261.4H80.0884C80.2218 263.56 80.9551 265.253 82.2884 266.48C83.6484 267.68 85.2884 268.28 87.2084 268.28C88.7818 268.28 90.0884 267.92 91.1284 267.2C92.1951 266.453 92.9418 265.467 93.3684 264.24H97.2884C96.7018 266.347 95.5284 268.067 93.7684 269.4C92.0084 270.707 89.8218 271.36 87.2084 271.36C85.1284 271.36 83.2618 270.893 81.6084 269.96C79.9818 269.027 78.7018 267.707 77.7684 266C76.8351 264.267 76.3684 262.267 76.3684 260C76.3684 257.733 76.8218 255.747 77.7284 254.04C78.6351 252.333 79.9018 251.027 81.5284 250.12C83.1818 249.187 85.0751 248.72 87.2084 248.72C89.2884 248.72 91.1284 249.173 92.7284 250.08C94.3284 250.987 95.5551 252.24 96.4084 253.84C97.2884 255.413 97.7284 257.2 97.7284 259.2ZM93.9684 258.44C93.9684 257.053 93.6618 255.867 93.0484 254.88C92.4351 253.867 91.5951 253.107 90.5284 252.6C89.4884 252.067 88.3284 251.8 87.0484 251.8C85.2084 251.8 83.6351 252.387 82.3284 253.56C81.0484 254.733 80.3151 256.36 80.1284 258.44H93.9684ZM101.173 259.96C101.173 257.72 101.626 255.76 102.533 254.08C103.44 252.373 104.68 251.053 106.253 250.12C107.853 249.187 109.626 248.72 111.573 248.72C113.493 248.72 115.16 249.133 116.573 249.96C117.986 250.787 119.04 251.827 119.733 253.08V249.08H123.413V271H119.733V266.92C119.013 268.2 117.933 269.267 116.493 270.12C115.08 270.947 113.426 271.36 111.533 271.36C109.586 271.36 107.826 270.88 106.253 269.92C104.68 268.96 103.44 267.613 102.533 265.88C101.626 264.147 101.173 262.173 101.173 259.96ZM119.733 260C119.733 258.347 119.4 256.907 118.733 255.68C118.066 254.453 117.16 253.52 116.013 252.88C114.893 252.213 113.653 251.88 112.293 251.88C110.933 251.88 109.693 252.2 108.573 252.84C107.453 253.48 106.56 254.413 105.893 255.64C105.226 256.867 104.893 258.307 104.893 259.96C104.893 261.64 105.226 263.107 105.893 264.36C106.56 265.587 107.453 266.533 108.573 267.2C109.693 267.84 110.933 268.16 112.293 268.16C113.653 268.16 114.893 267.84 116.013 267.2C117.16 266.533 118.066 265.587 118.733 264.36C119.4 263.107 119.733 261.653 119.733 260ZM137.324 271.36C135.644 271.36 134.138 271.08 132.804 270.52C131.471 269.933 130.418 269.133 129.644 268.12C128.871 267.08 128.444 265.893 128.364 264.56H132.124C132.231 265.653 132.738 266.547 133.644 267.24C134.578 267.933 135.791 268.28 137.284 268.28C138.671 268.28 139.764 267.973 140.564 267.36C141.364 266.747 141.764 265.973 141.764 265.04C141.764 264.08 141.338 263.373 140.484 262.92C139.631 262.44 138.311 261.973 136.524 261.52C134.898 261.093 133.564 260.667 132.524 260.24C131.511 259.787 130.631 259.133 129.884 258.28C129.164 257.4 128.804 256.253 128.804 254.84C128.804 253.72 129.138 252.693 129.804 251.76C130.471 250.827 131.418 250.093 132.644 249.56C133.871 249 135.271 248.72 136.844 248.72C139.271 248.72 141.231 249.333 142.724 250.56C144.218 251.787 145.018 253.467 145.124 255.6H141.484C141.404 254.453 140.938 253.533 140.084 252.84C139.258 252.147 138.138 251.8 136.724 251.8C135.418 251.8 134.378 252.08 133.604 252.64C132.831 253.2 132.444 253.933 132.444 254.84C132.444 255.56 132.671 256.16 133.124 256.64C133.604 257.093 134.191 257.467 134.884 257.76C135.604 258.027 136.591 258.333 137.844 258.68C139.418 259.107 140.698 259.533 141.684 259.96C142.671 260.36 143.511 260.973 144.204 261.8C144.924 262.627 145.298 263.707 145.324 265.04C145.324 266.24 144.991 267.32 144.324 268.28C143.658 269.24 142.711 270 141.484 270.56C140.284 271.093 138.898 271.36 137.324 271.36ZM152.343 245.52C151.649 245.52 151.063 245.28 150.583 244.8C150.103 244.32 149.863 243.733 149.863 243.04C149.863 242.347 150.103 241.76 150.583 241.28C151.063 240.8 151.649 240.56 152.343 240.56C153.009 240.56 153.569 240.8 154.023 241.28C154.503 241.76 154.743 242.347 154.743 243.04C154.743 243.733 154.503 244.32 154.023 244.8C153.569 245.28 153.009 245.52 152.343 245.52ZM154.103 249.08V271H150.463V249.08H154.103ZM170.987 248.68C173.653 248.68 175.813 249.493 177.467 251.12C179.12 252.72 179.947 255.04 179.947 258.08V271H176.347V258.6C176.347 256.413 175.8 254.747 174.707 253.6C173.613 252.427 172.12 251.84 170.227 251.84C168.307 251.84 166.773 252.44 165.627 253.64C164.507 254.84 163.947 256.587 163.947 258.88V271H160.307V249.08H163.947V252.2C164.667 251.08 165.64 250.213 166.867 249.6C168.12 248.987 169.493 248.68 170.987 248.68ZM194.933 248.72C196.826 248.72 198.479 249.133 199.893 249.96C201.333 250.787 202.399 251.827 203.093 253.08V249.08H206.773V271.48C206.773 273.48 206.346 275.253 205.493 276.8C204.639 278.373 203.413 279.6 201.813 280.48C200.239 281.36 198.399 281.8 196.293 281.8C193.413 281.8 191.013 281.12 189.093 279.76C187.173 278.4 186.039 276.547 185.693 274.2H189.293C189.693 275.533 190.519 276.6 191.773 277.4C193.026 278.227 194.533 278.64 196.293 278.64C198.293 278.64 199.919 278.013 201.173 276.76C202.453 275.507 203.093 273.747 203.093 271.48V266.88C202.373 268.16 201.306 269.227 199.893 270.08C198.479 270.933 196.826 271.36 194.933 271.36C192.986 271.36 191.213 270.88 189.613 269.92C188.039 268.96 186.799 267.613 185.893 265.88C184.986 264.147 184.533 262.173 184.533 259.96C184.533 257.72 184.986 255.76 185.893 254.08C186.799 252.373 188.039 251.053 189.613 250.12C191.213 249.187 192.986 248.72 194.933 248.72ZM203.093 260C203.093 258.347 202.759 256.907 202.093 255.68C201.426 254.453 200.519 253.52 199.373 252.88C198.253 252.213 197.013 251.88 195.653 251.88C194.293 251.88 193.053 252.2 191.933 252.84C190.813 253.48 189.919 254.413 189.253 255.64C188.586 256.867 188.253 258.307 188.253 259.96C188.253 261.64 188.586 263.107 189.253 264.36C189.919 265.587 190.813 266.533 191.933 267.2C193.053 267.84 194.293 268.16 195.653 268.16C197.013 268.16 198.253 267.84 199.373 267.2C200.519 266.533 201.426 265.587 202.093 264.36C202.759 263.107 203.093 261.653 203.093 260ZM228.028 252.08V265C228.028 266.067 228.254 266.827 228.708 267.28C229.161 267.707 229.948 267.92 231.068 267.92H233.748V271H230.468C228.441 271 226.921 270.533 225.908 269.6C224.894 268.667 224.388 267.133 224.388 265V252.08H221.548V249.08H224.388V243.56H228.028V249.08H233.748V252.08H228.028ZM249.038 248.68C250.691 248.68 252.185 249.04 253.518 249.76C254.851 250.453 255.891 251.507 256.638 252.92C257.411 254.333 257.798 256.053 257.798 258.08V271H254.198V258.6C254.198 256.413 253.651 254.747 252.558 253.6C251.465 252.427 249.971 251.84 248.078 251.84C246.158 251.84 244.625 252.44 243.478 253.64C242.358 254.84 241.798 256.587 241.798 258.88V271H238.158V241.4H241.798V252.2C242.518 251.08 243.505 250.213 244.758 249.6C246.038 248.987 247.465 248.68 249.038 248.68ZM283.744 259.2C283.744 259.893 283.704 260.627 283.624 261.4H266.104C266.237 263.56 266.971 265.253 268.304 266.48C269.664 267.68 271.304 268.28 273.224 268.28C274.797 268.28 276.104 267.92 277.144 267.2C278.211 266.453 278.957 265.467 279.384 264.24H283.304C282.717 266.347 281.544 268.067 279.784 269.4C278.024 270.707 275.837 271.36 273.224 271.36C271.144 271.36 269.277 270.893 267.624 269.96C265.997 269.027 264.717 267.707 263.784 266C262.851 264.267 262.384 262.267 262.384 260C262.384 257.733 262.837 255.747 263.744 254.04C264.651 252.333 265.917 251.027 267.544 250.12C269.197 249.187 271.091 248.72 273.224 248.72C275.304 248.72 277.144 249.173 278.744 250.08C280.344 250.987 281.571 252.24 282.424 253.84C283.304 255.413 283.744 257.2 283.744 259.2ZM279.984 258.44C279.984 257.053 279.677 255.867 279.064 254.88C278.451 253.867 277.611 253.107 276.544 252.6C275.504 252.067 274.344 251.8 273.064 251.8C271.224 251.8 269.651 252.387 268.344 253.56C267.064 254.733 266.331 256.36 266.144 258.44H279.984ZM290.429 245.52C289.735 245.52 289.149 245.28 288.669 244.8C288.189 244.32 287.949 243.733 287.949 243.04C287.949 242.347 288.189 241.76 288.669 241.28C289.149 240.8 289.735 240.56 290.429 240.56C291.095 240.56 291.655 240.8 292.109 241.28C292.589 241.76 292.829 242.347 292.829 243.04C292.829 243.733 292.589 244.32 292.109 244.8C291.655 245.28 291.095 245.52 290.429 245.52ZM292.189 249.08V271H288.549V249.08H292.189ZM302.033 252.64C302.673 251.387 303.579 250.413 304.753 249.72C305.953 249.027 307.406 248.68 309.113 248.68V252.44H308.153C304.073 252.44 302.033 254.653 302.033 259.08V271H298.393V249.08H302.033V252.64ZM331.738 271.36C330.058 271.36 328.552 271.08 327.218 270.52C325.885 269.933 324.832 269.133 324.058 268.12C323.285 267.08 322.858 265.893 322.778 264.56H326.538C326.645 265.653 327.152 266.547 328.058 267.24C328.992 267.933 330.205 268.28 331.698 268.28C333.085 268.28 334.178 267.973 334.978 267.36C335.778 266.747 336.178 265.973 336.178 265.04C336.178 264.08 335.752 263.373 334.898 262.92C334.045 262.44 332.725 261.973 330.938 261.52C329.312 261.093 327.978 260.667 326.938 260.24C325.925 259.787 325.045 259.133 324.298 258.28C323.578 257.4 323.218 256.253 323.218 254.84C323.218 253.72 323.552 252.693 324.218 251.76C324.885 250.827 325.832 250.093 327.058 249.56C328.285 249 329.685 248.72 331.258 248.72C333.685 248.72 335.645 249.333 337.138 250.56C338.632 251.787 339.432 253.467 339.538 255.6H335.898C335.818 254.453 335.352 253.533 334.498 252.84C333.672 252.147 332.552 251.8 331.138 251.8C329.832 251.8 328.792 252.08 328.018 252.64C327.245 253.2 326.858 253.933 326.858 254.84C326.858 255.56 327.085 256.16 327.538 256.64C328.018 257.093 328.605 257.467 329.298 257.76C330.018 258.027 331.005 258.333 332.258 258.68C333.832 259.107 335.112 259.533 336.098 259.96C337.085 260.36 337.925 260.973 338.618 261.8C339.338 262.627 339.712 263.707 339.738 265.04C339.738 266.24 339.405 267.32 338.738 268.28C338.072 269.24 337.125 270 335.898 270.56C334.698 271.093 333.312 271.36 331.738 271.36ZM343.517 259.96C343.517 257.72 343.97 255.76 344.877 254.08C345.784 252.373 347.024 251.053 348.597 250.12C350.197 249.187 351.97 248.72 353.917 248.72C355.837 248.72 357.504 249.133 358.917 249.96C360.33 250.787 361.384 251.827 362.077 253.08V249.08H365.757V271H362.077V266.92C361.357 268.2 360.277 269.267 358.837 270.12C357.424 270.947 355.77 271.36 353.877 271.36C351.93 271.36 350.17 270.88 348.597 269.92C347.024 268.96 345.784 267.613 344.877 265.88C343.97 264.147 343.517 262.173 343.517 259.96ZM362.077 260C362.077 258.347 361.744 256.907 361.077 255.68C360.41 254.453 359.504 253.52 358.357 252.88C357.237 252.213 355.997 251.88 354.637 251.88C353.277 251.88 352.037 252.2 350.917 252.84C349.797 253.48 348.904 254.413 348.237 255.64C347.57 256.867 347.237 258.307 347.237 259.96C347.237 261.64 347.57 263.107 348.237 264.36C348.904 265.587 349.797 266.533 350.917 267.2C352.037 267.84 353.277 268.16 354.637 268.16C355.997 268.16 357.237 267.84 358.357 267.2C359.504 266.533 360.41 265.587 361.077 264.36C361.744 263.107 362.077 261.653 362.077 260ZM380.828 252.08H376.228V271H372.588V252.08H369.748V249.08H372.588V247.52C372.588 245.067 373.215 243.28 374.468 242.16C375.748 241.013 377.788 240.44 380.588 240.44V243.48C378.988 243.48 377.855 243.8 377.188 244.44C376.548 245.053 376.228 246.08 376.228 247.52V249.08H380.828V252.08ZM405.072 259.2C405.072 259.893 405.032 260.627 404.952 261.4H387.432C387.566 263.56 388.299 265.253 389.632 266.48C390.992 267.68 392.632 268.28 394.552 268.28C396.126 268.28 397.432 267.92 398.472 267.2C399.539 266.453 400.286 265.467 400.712 264.24H404.632C404.046 266.347 402.872 268.067 401.112 269.4C399.352 270.707 397.166 271.36 394.552 271.36C392.472 271.36 390.606 270.893 388.952 269.96C387.326 269.027 386.046 267.707 385.112 266C384.179 264.267 383.712 262.267 383.712 260C383.712 257.733 384.166 255.747 385.072 254.04C385.979 252.333 387.246 251.027 388.872 250.12C390.526 249.187 392.419 248.72 394.552 248.72C396.632 248.72 398.472 249.173 400.072 250.08C401.672 250.987 402.899 252.24 403.752 253.84C404.632 255.413 405.072 257.2 405.072 259.2ZM401.312 258.44C401.312 257.053 401.006 255.867 400.392 254.88C399.779 253.867 398.939 253.107 397.872 252.6C396.832 252.067 395.672 251.8 394.392 251.8C392.552 251.8 390.979 252.387 389.672 253.56C388.392 254.733 387.659 256.36 387.472 258.44H401.312ZM414.317 252.08V265C414.317 266.067 414.544 266.827 414.997 267.28C415.45 267.707 416.237 267.92 417.357 267.92H420.037V271H416.757C414.73 271 413.21 270.533 412.197 269.6C411.184 268.667 410.677 267.133 410.677 265V252.08H407.837V249.08H410.677V243.56H414.317V249.08H420.037V252.08H414.317ZM443.327 249.08L430.127 281.32H426.367L430.687 270.76L421.847 249.08H425.887L432.767 266.84L439.567 249.08H443.327ZM32.28 309.08L25.44 331H21.68L16.4 313.6L11.12 331H7.36L0.48 309.08H4.2L9.24 327.48L14.68 309.08H18.4L23.72 327.52L28.68 309.08H32.28ZM46.7725 308.68C48.4258 308.68 49.9192 309.04 51.2525 309.76C52.5858 310.453 53.6258 311.507 54.3725 312.92C55.1458 314.333 55.5325 316.053 55.5325 318.08V331H51.9325V318.6C51.9325 316.413 51.3858 314.747 50.2925 313.6C49.1992 312.427 47.7058 311.84 45.8125 311.84C43.8925 311.84 42.3592 312.44 41.2125 313.64C40.0925 314.84 39.5325 316.587 39.5325 318.88V331H35.8925V301.4H39.5325V312.2C40.2525 311.08 41.2392 310.213 42.4925 309.6C43.7725 308.987 45.1992 308.68 46.7725 308.68ZM81.4784 319.2C81.4784 319.893 81.4384 320.627 81.3584 321.4H63.8384C63.9718 323.56 64.7051 325.253 66.0384 326.48C67.3984 327.68 69.0384 328.28 70.9584 328.28C72.5318 328.28 73.8384 327.92 74.8784 327.2C75.9451 326.453 76.6918 325.467 77.1184 324.24H81.0384C80.4518 326.347 79.2784 328.067 77.5184 329.4C75.7584 330.707 73.5718 331.36 70.9584 331.36C68.8784 331.36 67.0118 330.893 65.3584 329.96C63.7318 329.027 62.4518 327.707 61.5184 326C60.5851 324.267 60.1184 322.267 60.1184 320C60.1184 317.733 60.5718 315.747 61.4784 314.04C62.3851 312.333 63.6518 311.027 65.2784 310.12C66.9318 309.187 68.8251 308.72 70.9584 308.72C73.0384 308.72 74.8784 309.173 76.4784 310.08C78.0784 310.987 79.3051 312.24 80.1584 313.84C81.0384 315.413 81.4784 317.2 81.4784 319.2ZM77.7184 318.44C77.7184 317.053 77.4118 315.867 76.7984 314.88C76.1851 313.867 75.3451 313.107 74.2784 312.6C73.2384 312.067 72.0784 311.8 70.7984 311.8C68.9584 311.8 67.3851 312.387 66.0784 313.56C64.7984 314.733 64.0651 316.36 63.8784 318.44H77.7184ZM89.9231 312.64C90.5631 311.387 91.4698 310.413 92.6431 309.72C93.8431 309.027 95.2965 308.68 97.0031 308.68V312.44H96.0431C91.9631 312.44 89.9231 314.653 89.9231 319.08V331H86.2831V309.08H89.9231V312.64ZM121.205 319.2C121.205 319.893 121.165 320.627 121.085 321.4H103.565C103.698 323.56 104.432 325.253 105.765 326.48C107.125 327.68 108.765 328.28 110.685 328.28C112.258 328.28 113.565 327.92 114.605 327.2C115.672 326.453 116.418 325.467 116.845 324.24H120.765C120.178 326.347 119.005 328.067 117.245 329.4C115.485 330.707 113.298 331.36 110.685 331.36C108.605 331.36 106.738 330.893 105.085 329.96C103.458 329.027 102.178 327.707 101.245 326C100.312 324.267 99.845 322.267 99.845 320C99.845 317.733 100.298 315.747 101.205 314.04C102.112 312.333 103.378 311.027 105.005 310.12C106.658 309.187 108.552 308.72 110.685 308.72C112.765 308.72 114.605 309.173 116.205 310.08C117.805 310.987 119.032 312.24 119.885 313.84C120.765 315.413 121.205 317.2 121.205 319.2ZM117.445 318.44C117.445 317.053 117.138 315.867 116.525 314.88C115.912 313.867 115.072 313.107 114.005 312.6C112.965 312.067 111.805 311.8 110.525 311.8C108.685 311.8 107.112 312.387 105.805 313.56C104.525 314.733 103.792 316.36 103.605 318.44H117.445ZM134.17 327.64L140.97 309.08H144.85L136.25 331H132.01L123.41 309.08H127.33L134.17 327.64ZM168.432 319.2C168.432 319.893 168.392 320.627 168.312 321.4H150.792C150.925 323.56 151.658 325.253 152.992 326.48C154.352 327.68 155.992 328.28 157.912 328.28C159.485 328.28 160.792 327.92 161.832 327.2C162.898 326.453 163.645 325.467 164.072 324.24H167.992C167.405 326.347 166.232 328.067 164.472 329.4C162.712 330.707 160.525 331.36 157.912 331.36C155.832 331.36 153.965 330.893 152.312 329.96C150.685 329.027 149.405 327.707 148.472 326C147.538 324.267 147.072 322.267 147.072 320C147.072 317.733 147.525 315.747 148.432 314.04C149.338 312.333 150.605 311.027 152.232 310.12C153.885 309.187 155.778 308.72 157.912 308.72C159.992 308.72 161.832 309.173 163.432 310.08C165.032 310.987 166.258 312.24 167.112 313.84C167.992 315.413 168.432 317.2 168.432 319.2ZM164.672 318.44C164.672 317.053 164.365 315.867 163.752 314.88C163.138 313.867 162.298 313.107 161.232 312.6C160.192 312.067 159.032 311.8 157.752 311.8C155.912 311.8 154.338 312.387 153.032 313.56C151.752 314.733 151.018 316.36 150.832 318.44H164.672ZM176.876 312.64C177.516 311.387 178.423 310.413 179.596 309.72C180.796 309.027 182.25 308.68 183.956 308.68V312.44H182.996C178.916 312.44 176.876 314.653 176.876 319.08V331H173.236V309.08H176.876V312.64ZM203.262 312.08V325C203.262 326.067 203.489 326.827 203.942 327.28C204.396 327.707 205.182 327.92 206.302 327.92H208.982V331H205.702C203.676 331 202.156 330.533 201.142 329.6C200.129 328.667 199.622 327.133 199.622 325V312.08H196.782V309.08H199.622V303.56H203.262V309.08H208.982V312.08H203.262ZM224.273 308.68C225.926 308.68 227.419 309.04 228.753 309.76C230.086 310.453 231.126 311.507 231.873 312.92C232.646 314.333 233.033 316.053 233.033 318.08V331H229.433V318.6C229.433 316.413 228.886 314.747 227.793 313.6C226.699 312.427 225.206 311.84 223.313 311.84C221.393 311.84 219.859 312.44 218.713 313.64C217.593 314.84 217.033 316.587 217.033 318.88V331H213.393V301.4H217.033V312.2C217.753 311.08 218.739 310.213 219.993 309.6C221.273 308.987 222.699 308.68 224.273 308.68ZM258.978 319.2C258.978 319.893 258.938 320.627 258.858 321.4H241.338C241.472 323.56 242.205 325.253 243.538 326.48C244.898 327.68 246.538 328.28 248.458 328.28C250.032 328.28 251.338 327.92 252.378 327.2C253.445 326.453 254.192 325.467 254.618 324.24H258.538C257.952 326.347 256.778 328.067 255.018 329.4C253.258 330.707 251.072 331.36 248.458 331.36C246.378 331.36 244.512 330.893 242.858 329.96C241.232 329.027 239.952 327.707 239.018 326C238.085 324.267 237.618 322.267 237.618 320C237.618 317.733 238.072 315.747 238.978 314.04C239.885 312.333 241.152 311.027 242.778 310.12C244.432 309.187 246.325 308.72 248.458 308.72C250.538 308.72 252.378 309.173 253.978 310.08C255.578 310.987 256.805 312.24 257.658 313.84C258.538 315.413 258.978 317.2 258.978 319.2ZM255.218 318.44C255.218 317.053 254.912 315.867 254.298 314.88C253.685 313.867 252.845 313.107 251.778 312.6C250.738 312.067 249.578 311.8 248.298 311.8C246.458 311.8 244.885 312.387 243.578 313.56C242.298 314.733 241.565 316.36 241.378 318.44H255.218ZM282.663 309.08L269.463 341.32H265.703L270.023 330.76L261.183 309.08H265.223L272.103 326.84L278.903 309.08H282.663ZM295.626 319.96C295.626 317.72 296.08 315.76 296.986 314.08C297.893 312.373 299.133 311.053 300.706 310.12C302.306 309.187 304.08 308.72 306.026 308.72C307.946 308.72 309.613 309.133 311.026 309.96C312.44 310.787 313.493 311.827 314.186 313.08V309.08H317.866V331H314.186V326.92C313.466 328.2 312.386 329.267 310.946 330.12C309.533 330.947 307.88 331.36 305.986 331.36C304.04 331.36 302.28 330.88 300.706 329.92C299.133 328.96 297.893 327.613 296.986 325.88C296.08 324.147 295.626 322.173 295.626 319.96ZM314.186 320C314.186 318.347 313.853 316.907 313.186 315.68C312.52 314.453 311.613 313.52 310.466 312.88C309.346 312.213 308.106 311.88 306.746 311.88C305.386 311.88 304.146 312.2 303.026 312.84C301.906 313.48 301.013 314.413 300.346 315.64C299.68 316.867 299.346 318.307 299.346 319.96C299.346 321.64 299.68 323.107 300.346 324.36C301.013 325.587 301.906 326.533 303.026 327.2C304.146 327.84 305.386 328.16 306.746 328.16C308.106 328.16 309.346 327.84 310.466 327.2C311.613 326.533 312.52 325.587 313.186 324.36C313.853 323.107 314.186 321.653 314.186 320ZM327.658 312.64C328.298 311.387 329.204 310.413 330.378 309.72C331.578 309.027 333.031 308.68 334.738 308.68V312.44H333.778C329.698 312.44 327.658 314.653 327.658 319.08V331H324.018V309.08H327.658V312.64ZM358.939 319.2C358.939 319.893 358.899 320.627 358.819 321.4H341.299C341.433 323.56 342.166 325.253 343.499 326.48C344.859 327.68 346.499 328.28 348.419 328.28C349.993 328.28 351.299 327.92 352.339 327.2C353.406 326.453 354.153 325.467 354.579 324.24H358.499C357.913 326.347 356.739 328.067 354.979 329.4C353.219 330.707 351.033 331.36 348.419 331.36C346.339 331.36 344.473 330.893 342.819 329.96C341.193 329.027 339.913 327.707 338.979 326C338.046 324.267 337.579 322.267 337.579 320C337.579 317.733 338.033 315.747 338.939 314.04C339.846 312.333 341.113 311.027 342.739 310.12C344.393 309.187 346.286 308.72 348.419 308.72C350.499 308.72 352.339 309.173 353.939 310.08C355.539 310.987 356.766 312.24 357.619 313.84C358.499 315.413 358.939 317.2 358.939 319.2ZM355.179 318.44C355.179 317.053 354.873 315.867 354.259 314.88C353.646 313.867 352.806 313.107 351.739 312.6C350.699 312.067 349.539 311.8 348.259 311.8C346.419 311.8 344.846 312.387 343.539 313.56C342.259 314.733 341.526 316.36 341.339 318.44H355.179ZM364.904 331.24C364.211 331.24 363.624 331 363.144 330.52C362.664 330.04 362.424 329.453 362.424 328.76C362.424 328.067 362.664 327.48 363.144 327C363.624 326.52 364.211 326.28 364.904 326.28C365.571 326.28 366.131 326.52 366.584 327C367.064 327.48 367.304 328.067 367.304 328.76C367.304 329.453 367.064 330.04 366.584 330.52C366.131 331 365.571 331.24 364.904 331.24Z" fill="white"/>
</svg>
