<svg width="715" height="872" viewBox="0 0 715 872" fill="none" xmlns="http://www.w3.org/2000/svg">
<path d="M0 872C8.93329 848.2 37.8232 796.548 81.9165 780.344C137.033 760.088 162.316 761.101 204.791 738.314C247.267 715.526 362.051 669.951 372.164 665.9C382.277 661.849 386.828 654.253 388.851 639.061C390.873 623.87 397.953 582.346 393.402 577.282C388.851 572.218 361.04 577.282 356.489 579.814C351.938 582.346 302.889 611.21 278.112 609.185C253.335 607.159 232.097 585.891 233.108 564.622C234.12 543.354 237.153 538.797 224.512 538.29L223.907 538.266C211.772 537.782 208.747 537.661 203.274 530.188C197.712 522.592 201.757 514.996 203.274 511.958C204.791 508.92 209.848 504.869 212.376 503.856C198.723 500.818 173.441 483.094 174.958 471.954C181.025 465.202 192.352 445.925 189.116 437.013C176.306 436.507 149.529 427.993 150.18 408.149C150.485 398.872 195.175 343.89 193.667 314.973L193.161 307.378C185.071 307.378 176.475 300.795 174.958 292.692C176.475 296.237 182.037 302.82 192.15 300.795C190.127 292.017 182.441 271.627 167.878 260.283C159.282 254.207 165.35 199.517 184.059 150.397C202.769 101.277 316.036 0 404.526 0H478.858H715V872H0Z" fill="#EEEEEE"/>
</svg>
